<svg width="24" height="24" viewBox="0 0 24 24" fill="none" xmlns="http://www.w3.org/2000/svg">
<g clip-path="url(#clip0_7_6826)">
<path d="M5.63 18.36C8.51 21.25 12.96 21.84 16.49 19.8C20.02 17.77 21.74 13.61 20.69 9.67999C19.64 5.73999 16.07 3.01001 12 3.01001" stroke="black" stroke-width="1.5" stroke-linecap="round" stroke-linejoin="round"/>
<path d="M3.78 15.43C3.78 15.43 3.76 15.48 3.73 15.48C3.7 15.48 3.67999 15.46 3.67999 15.43C3.67999 15.4 3.7 15.38 3.73 15.38C3.74 15.38 3.76 15.38 3.77 15.39C3.77 15.39 3.78 15.41 3.78 15.43" stroke="black" stroke-width="1.5" stroke-linecap="round" stroke-linejoin="round"/>
<path d="M3.10001 12C3.10001 12 3.08 12.05 3.05 12.05C3.02 12.05 3 12.03 3 12C3 11.97 3.02 11.95 3.05 11.95C3.06 11.95 3.08 11.95 3.09 11.96C3.09 11.96 3.10001 11.98 3.10001 12" stroke="black" stroke-width="1.5" stroke-linecap="round" stroke-linejoin="round"/>
<path d="M3.78 8.57999C3.78 8.57999 3.76 8.63 3.73 8.63C3.7 8.63 3.67999 8.60999 3.67999 8.57999C3.67999 8.54999 3.7 8.53 3.73 8.53C3.74 8.53 3.76 8.53001 3.77 8.54001C3.77 8.54001 3.78 8.55999 3.78 8.57999" stroke="black" stroke-width="1.5" stroke-linecap="round" stroke-linejoin="round"/>
<path d="M5.72 5.67001C5.72 5.67001 5.7 5.72 5.67 5.72C5.64 5.72 5.62 5.70001 5.62 5.67001C5.62 5.64001 5.64 5.62 5.67 5.62C5.68 5.62 5.70001 5.62 5.71001 5.63C5.71001 5.63 5.72 5.65001 5.72 5.67001" stroke="black" stroke-width="1.5" stroke-linecap="round" stroke-linejoin="round"/>
<path d="M8.62001 3.73001C8.62001 3.73001 8.60002 3.78 8.57002 3.78C8.54002 3.78 8.52002 3.76001 8.52002 3.73001C8.52002 3.70001 8.54002 3.67999 8.57002 3.67999C8.58002 3.67999 8.60002 3.68 8.61002 3.69C8.61002 3.69 8.62001 3.71001 8.62001 3.73001" stroke="black" stroke-width="1.5" stroke-linecap="round" stroke-linejoin="round"/>
<path d="M8.32001 10.61C8.46001 10.1 8.92 9.75 9.44 9.75C10.1 9.75 10.63 10.28 10.63 10.94C10.63 11.53 10.15 12 9.57001 12C10.16 12 10.63 12.48 10.63 13.06C10.63 13.72 10.1 14.25 9.44 14.25C8.91 14.25 8.45001 13.89 8.32001 13.39" stroke="black" stroke-width="1.5" stroke-linecap="round" stroke-linejoin="round"/>
<path d="M15.68 11.1C15.68 10.3544 15.0756 9.75 14.33 9.75C13.5844 9.75 12.98 10.3544 12.98 11.1V12.9C12.98 13.6456 13.5844 14.25 14.33 14.25C15.0756 14.25 15.68 13.6456 15.68 12.9V11.1Z" stroke="black" stroke-width="1.5" stroke-linecap="round" stroke-linejoin="round"/>
</g>
<defs>
<clipPath id="clip0_7_6826">
<rect width="24" height="24" fill="white"/>
</clipPath>
</defs>
</svg>
