<svg width="24" height="24" viewBox="0 0 24 24" fill="none" xmlns="http://www.w3.org/2000/svg">
<g clip-path="url(#clip0_7_6822)">
<path d="M12.6 5.5H6C4.34315 5.5 3 6.84315 3 8.5V15.5C3 17.1569 4.34315 18.5 6 18.5H12.6C14.2568 18.5 15.6 17.1569 15.6 15.5V8.5C15.6 6.84315 14.2568 5.5 12.6 5.5Z" stroke="black" stroke-width="1.5" stroke-linecap="round" stroke-linejoin="round"/>
<path d="M21 14.49V9.51001C21 8.64001 20.08 8.10999 19.36 8.54999L15.6 10.88V13.11L19.36 15.44C20.08 15.89 21 15.35 21 14.48V14.49Z" stroke="black" stroke-width="1.5" stroke-linecap="round" stroke-linejoin="round"/>
<path d="M9.29999 14.7V9.29999" stroke="black" stroke-width="1.5" stroke-linecap="round" stroke-linejoin="round"/>
<path d="M12 12H6.59998" stroke="black" stroke-width="1.5" stroke-linecap="round" stroke-linejoin="round"/>
</g>
<defs>
<clipPath id="clip0_7_6822">
<rect width="24" height="24" fill="white"/>
</clipPath>
</defs>
</svg>
