<svg width="24" height="24" viewBox="0 0 24 24" fill="none" xmlns="http://www.w3.org/2000/svg">
<g clip-path="url(#clip0_7_6783)">
<path d="M17.4 20.5H6.6C4.62 20.5 3 18.89 3 16.92V9.76001C3 7.79001 4.62 6.17999 6.6 6.17999H7.91C8.22 6.17999 8.5 6.01999 8.67 5.76999L9.86 3.91C10.03 3.65 10.31 3.5 10.62 3.5H13.3C13.6 3.5 13.88 3.65001 14.05 3.89001L15.34 5.79001C15.51 6.04001 15.79 6.17999 16.09 6.17999H17.41C19.39 6.17999 21.01 7.79001 21.01 9.76001V16.92C21.01 18.89 19.39 20.5 17.41 20.5H17.4Z" stroke="black" stroke-width="1.5" stroke-linecap="round" stroke-linejoin="round"/>
<path d="M12 17.86C14.6123 17.86 16.73 15.7423 16.73 13.13C16.73 10.5177 14.6123 8.39999 12 8.39999C9.38769 8.39999 7.26999 10.5177 7.26999 13.13C7.26999 15.7423 9.38769 17.86 12 17.86Z" stroke="black" stroke-width="1.5" stroke-linecap="round" stroke-linejoin="round"/>
<path d="M12 14.93V11.32" stroke="black" stroke-width="1.5" stroke-linecap="round" stroke-linejoin="round"/>
<path d="M13.8 13.12L10.2 13.13" stroke="black" stroke-width="1.5" stroke-linecap="round" stroke-linejoin="round"/>
</g>
<defs>
<clipPath id="clip0_7_6783">
<rect width="24" height="24" fill="white"/>
</clipPath>
</defs>
</svg>
