<svg width="24" height="24" viewBox="0 0 24 24" fill="none" xmlns="http://www.w3.org/2000/svg">
<g clip-path="url(#clip0_7_6625)">
<path d="M6.77002 10.68V6.46002C6.79002 5.54002 7.14999 4.66002 7.79999 4.02002C8.43999 3.37002 9.30997 3.01001 10.22 3.01001H16.56C17.47 3.01001 18.35 3.37998 19 4.03998C19.65 4.69998 20.02 5.59002 20.02 6.52002V19.28C20.02 21.07 18.96 21.55 17.65 20.34L14.67 17.59C14.61 17.54 14.55 17.5 14.5 17.46" stroke="black" stroke-width="1.5" stroke-miterlimit="10"/>
<path d="M9.41998 21C12.41 21 14.84 18.53 14.84 15.49C14.84 12.45 12.41 9.97998 9.41998 9.97998C6.42998 9.97998 4 12.45 4 15.49C4 18.53 6.42998 21 9.41998 21Z" stroke="black" stroke-width="1.5" stroke-miterlimit="10"/>
<path d="M11.38 15.49H7.44" stroke="black" stroke-width="1.5" stroke-miterlimit="10" stroke-linecap="round"/>
<path d="M9.41998 17.49V13.48" stroke="black" stroke-width="1.5" stroke-miterlimit="10" stroke-linecap="round"/>
</g>
<defs>
<clipPath id="clip0_7_6625">
<rect width="24" height="24" fill="white"/>
</clipPath>
</defs>
</svg>
