<svg width="24" height="24" viewBox="0 0 24 24" fill="none" xmlns="http://www.w3.org/2000/svg">
<g clip-path="url(#clip0_7_6678)">
<path d="M12 21C16.97 21 21 16.97 21 12C21 7.03 16.97 3 12 3C7.03 3 3 7.03 3 12C3 16.97 7.03 21 12 21Z" stroke="black" stroke-width="1.5" stroke-miterlimit="10" stroke-linecap="round"/>
<path d="M9 16.25C10.65 14.6 13.35 14.6 15 16.25" stroke="black" stroke-width="1.5" stroke-miterlimit="10" stroke-linecap="round"/>
<path d="M9.28 11.08C9.53405 11.08 9.73999 10.874 9.73999 10.62C9.73999 10.3659 9.53405 10.16 9.28 10.16C9.02595 10.16 8.82001 10.3659 8.82001 10.62C8.82001 10.874 9.02595 11.08 9.28 11.08Z" fill="black" stroke="black" stroke-width="1.5" stroke-miterlimit="10" stroke-linecap="round"/>
<path d="M7.89001 9.45999L10.57 10.15" stroke="black" stroke-width="1.5" stroke-miterlimit="10" stroke-linecap="round"/>
<path d="M14.72 11.08C14.9741 11.08 15.18 10.874 15.18 10.62C15.18 10.3659 14.9741 10.16 14.72 10.16C14.466 10.16 14.26 10.3659 14.26 10.62C14.26 10.874 14.466 11.08 14.72 11.08Z" fill="black" stroke="black" stroke-width="1.5" stroke-miterlimit="10" stroke-linecap="round"/>
<path d="M16.11 9.45999L13.43 10.15" stroke="black" stroke-width="1.5" stroke-miterlimit="10" stroke-linecap="round"/>
</g>
<defs>
<clipPath id="clip0_7_6678">
<rect width="24" height="24" fill="white"/>
</clipPath>
</defs>
</svg>
