<svg width="24" height="24" viewBox="0 0 24 24" fill="none" xmlns="http://www.w3.org/2000/svg">
<g clip-path="url(#clip0_7_6842)">
<path d="M16.92 14.61C16.43 15.05 15.61 15.06 14.64 14.69C13.36 14.23 11.83 13.12 10.45 11.58C9.07997 10.04 8.14994 8.39001 7.82994 7.06001C7.57994 6.06001 7.68995 5.25001 8.17995 4.81001C9.33995 3.78001 12.2299 5.13 14.65 7.83C17.07 10.53 18.08 13.57 16.92 14.6V14.61Z" stroke="black" stroke-width="1.5" stroke-miterlimit="10" stroke-linecap="round"/>
<path d="M7.85994 5.29001L3.16997 15.8C2.50997 17.27 3.90997 18.83 5.44997 18.35L16.43 14.88" stroke="black" stroke-width="1.5" stroke-miterlimit="10" stroke-linecap="round"/>
<path d="M6.64001 18.08L7.17001 19.77C7.46001 20.69 8.46 21.21 9.38 20.92L11.07 20.39C11.99 20.1 12.51 19.1 12.22 18.18L11.69 16.49" stroke="black" stroke-width="1.5" stroke-miterlimit="10" stroke-linecap="round"/>
<path d="M20.14 3.92999L19.26 4.82001" stroke="black" stroke-width="1.5" stroke-miterlimit="10" stroke-linecap="round"/>
<path d="M15.6 3L15.19 3.89999" stroke="black" stroke-width="1.5" stroke-miterlimit="10" stroke-linecap="round"/>
<path d="M21 8.39999L20.16 8.85001" stroke="black" stroke-width="1.5" stroke-miterlimit="10" stroke-linecap="round"/>
</g>
<defs>
<clipPath id="clip0_7_6842">
<rect width="24" height="24" fill="white"/>
</clipPath>
</defs>
</svg>
