<svg width="24" height="24" viewBox="0 0 24 24" fill="none" xmlns="http://www.w3.org/2000/svg">
<g clip-path="url(#clip0_7_6621)">
<path d="M16.33 3H17.5C18.43 3 19.31 3.37003 19.96 4.03003C20.61 4.68003 20.98 5.57 20.99 6.5V17.5C20.99 18.43 20.62 19.32 19.97 19.97C19.32 20.63 18.43 21 17.5 21H6.5C5.57 21 4.68 20.62 4.03 19.97C3.38 19.31 3.01 18.43 3 17.5V6.5C3 5.57 3.38 4.69003 4.03 4.03003C4.69 3.38003 5.57 3.01 6.5 3H16.32H16.33Z" stroke="black" stroke-width="1.5" stroke-miterlimit="10"/>
<path d="M14.79 13.18L12.84 11.41C12.61 11.21 12.32 11.1 12.01 11.1C11.7 11.1 11.41 11.21 11.19 11.41L9.24001 13.18C8.39001 13.96 7.69 13.64 7.69 12.49V3.02002H16.36V12.49C16.36 13.65 15.7 13.96 14.81 13.18H14.79Z" stroke="black" stroke-width="1.5" stroke-miterlimit="10"/>
</g>
<defs>
<clipPath id="clip0_7_6621">
<rect width="24" height="24" fill="white"/>
</clipPath>
</defs>
</svg>
