<svg width="24" height="24" viewBox="0 0 24 24" fill="none" xmlns="http://www.w3.org/2000/svg">
<g clip-path="url(#clip0_7_6684)">
<path d="M3.89999 16.03H7.13C7.37 16.03 7.59999 16.13 7.76999 16.29L9.04001 17.55C9.21001 17.72 9.43999 17.81 9.67999 17.81H14.15C14.49 17.81 14.81 17.62 14.95 17.32L15.35 16.52C15.5 16.22 15.82 16.03 16.15 16.03H20.09C20.58 16.03 20.99 16.43 20.99 16.92V17.81C20.99 19.3 19.78 20.49 18.29 20.49H5.69C4.2 20.49 2.98999 19.29 2.98999 17.81V16.92C2.98999 16.43 3.40001 16.03 3.89001 16.03H3.89999Z" stroke="black" stroke-width="1.5" stroke-linecap="round" stroke-linejoin="round"/>
<path d="M4.34998 16.03V6.01001C4.34998 4.63001 5.62997 3.5 7.21997 3.5H16.78C18.36 3.5 19.65 4.62001 19.65 6.01001V16.03" stroke="black" stroke-width="1.5" stroke-linecap="round" stroke-linejoin="round"/>
</g>
<defs>
<clipPath id="clip0_7_6684">
<rect width="24" height="24" fill="white"/>
</clipPath>
</defs>
</svg>
