<svg width="24" height="24" viewBox="0 0 24 24" fill="none" xmlns="http://www.w3.org/2000/svg">
<g clip-path="url(#clip0_7_6827)">
<path d="M13.99 7.59998L8.32999 12.88C7.88999 13.3 7.64 13.87 7.66 14.46C7.68 15.05 7.92 15.61 8.37 16.02C8.82 16.43 9.43 16.67 10.06 16.67C10.69 16.67 11.29 16.45 11.75 16.04L17.61 10.59C18.49 9.75003 18.97 8.61 18.96 7.44C18.95 6.26 18.45 5.14 17.56 4.31C16.67 3.48 15.46 3.01 14.2 3C12.94 3 11.72 3.44001 10.81 4.26001L5.14001 9.53003C4.47001 10.15 3.94001 10.89 3.57001 11.71C3.21001 12.53 3.03 13.4 3.03 14.28C3.03 15.16 3.22001 16.04 3.57001 16.85C3.94001 17.67 4.46001 18.41 5.14001 19.03C5.82001 19.65 6.61001 20.15 7.48001 20.49C8.36001 20.83 9.3 21 10.25 21C11.2 21 12.13 20.83 13.02 20.49C13.89 20.15 14.69 19.66 15.36 19.03L21.03 13.76" stroke="black" stroke-width="1.5" stroke-linecap="round" stroke-linejoin="round"/>
</g>
<defs>
<clipPath id="clip0_7_6827">
<rect width="24" height="24" fill="white"/>
</clipPath>
</defs>
</svg>
