<svg width="24" height="24" viewBox="0 0 24 24" fill="none" xmlns="http://www.w3.org/2000/svg">
	<path d="M6 1.99994L3 5.99994V19.9999C3 20.5304 3.21071 21.0391 3.58579 21.4142C3.96086 21.7892 4.46957 21.9999 5 21.9999H19C19.5304 21.9999 20.0391 21.7892 20.4142 21.4142C20.7893 21.0391 21 20.5304 21 19.9999V5.99994L18 1.99994H6Z" stroke="currentColor" stroke-width="2" stroke-linecap="round" stroke-linejoin="round" />
	<path d="M3 5.99991H21" stroke="currentColor" stroke-width="2" stroke-linecap="round" stroke-linejoin="round" />
	<path d="M16 9.99997C16 11.0608 15.5786 12.0783 14.8284 12.8284C14.0783 13.5785 13.0609 14 12 14C10.9391 14 9.92172 13.5785 9.17157 12.8284C8.42143 12.0783 8 11.0608 8 9.99997" stroke="currentColor" stroke-width="2" stroke-linecap="round" stroke-linejoin="round" />
</svg>
