<svg width="24" height="24" viewBox="0 0 24 24" fill="none" xmlns="http://www.w3.org/2000/svg">
	<path d="M9.2002 7L8.999 7.47905C8.67418 8.25243 8.59254 9.10637 8.76493 9.92729C9.02797 11.1799 10.0252 12.1473 11.2851 12.3723L11.3961 12.3921C11.7957 12.4635 12.2047 12.4635 12.6043 12.3921L12.7153 12.3723C13.9752 12.1473 14.9724 11.1799 15.2355 9.92729C15.4079 9.10637 15.3262 8.25243 15.0014 7.47905L14.8002 7" stroke="currentColor" stroke-width="1.5" stroke-linecap="round" />
	<path d="M20.2209 15.143C19.6508 17.6504 17.7018 19.6204 15.2025 20.2251C13.102 20.7334 10.8983 20.7334 8.7979 20.2251C6.29861 19.6204 4.34961 17.6504 3.77943 15.143C3.26999 12.9026 3.39389 10.5648 4.13727 8.39084L4.24771 8.06787C5.06566 5.67585 7.109 3.91013 9.59434 3.44766L10.2749 3.32102C11.4153 3.10881 12.5851 3.10881 13.7255 3.32102L14.406 3.44766C16.8914 3.91013 18.9347 5.67586 19.7527 8.06789L19.8631 8.39084C20.6065 10.5648 20.7304 12.9026 20.2209 15.143Z" stroke="currentColor" stroke-width="1.5" />
</svg>
