<svg width="24" height="24" viewBox="0 0 24 24" fill="none" xmlns="http://www.w3.org/2000/svg">
<g clip-path="url(#clip0_7_6656)">
<path d="M12 21C16.97 21 21 16.97 21 12C21 7.03 16.97 3 12 3C7.03 3 3 7.03 3 12C3 16.97 7.03 21 12 21Z" stroke="black" stroke-width="1.5" stroke-miterlimit="10"/>
<path d="M3.02002 11.43C4.95002 12.13 6.95002 12.6 8.99002 12.81H9.06003C10.03 12.91 11.01 12.97 11.98 12.97C12.98 12.97 13.97 12.92 14.97 12.81H15.03C16.99 12.61 18.91 12.17 20.76 11.52" stroke="black" stroke-width="1.5" stroke-miterlimit="10" stroke-linecap="round"/>
<path d="M5.77002 5.51001C6.90002 6.27001 7.78002 7.33001 8.33002 8.57001C8.86002 9.83001 9.11004 11.18 9.07004 12.54V12.81C9.02004 13.85 8.77003 14.87 8.34003 15.82C7.83003 16.98 7.04002 17.99 6.02002 18.74" stroke="black" stroke-width="1.5" stroke-miterlimit="10" stroke-linecap="round"/>
<path d="M17.97 18.72C16.97 17.96 16.17 16.96 15.66 15.8C15.26 14.84 15.02 13.82 14.94 12.78V12.52C14.87 11.15 15.12 9.78 15.68 8.53C16.22 7.33 17.05 6.30001 18.12 5.54001" stroke="black" stroke-width="1.5" stroke-miterlimit="10" stroke-linecap="round"/>
</g>
<defs>
<clipPath id="clip0_7_6656">
<rect width="24" height="24" fill="white"/>
</clipPath>
</defs>
</svg>
