<svg width="24" height="24" viewBox="0 0 24 24" fill="none" xmlns="http://www.w3.org/2000/svg">
<g clip-path="url(#clip0_7_6631)">
<path d="M18.81 20.44C18.43 20.78 17.95 20.98 17.43 21C16.04 21 13.13 20.15 8.48 15.52C3.84 10.9 3.04 7.93997 3 6.59997C3 6.08997 3.21 5.59997 3.55 5.22997L5.19 3.59002C5.38 3.39002 5.61 3.24001 5.86 3.14001C6.13 3.04001 6.4 3.01002 6.68 3.03002C6.95 3.05002 7.21 3.14002 7.45 3.28002C7.69 3.42002 7.89 3.61002 8.04 3.84002L9.38 5.72997C9.51 5.94997 9.59 6.2 9.61 6.45C9.63 6.71 9.58 6.96 9.48 7.2L8.58 8.90996C8.52 9.03996 8.49 9.19002 8.49 9.34002C8.49 9.49002 8.52 9.63001 8.58 9.77001C9.18 10.98 10 12.06 11 12.96C11.89 13.97 12.98 14.81 14.18 15.41C14.31 15.47 14.47 15.5 14.61 15.5C14.75 15.5 14.9 15.47 15.04 15.41L16.76 14.51C17 14.41 17.25 14.36 17.51 14.38C17.77 14.4 18.01 14.47 18.23 14.61L20.13 15.96C20.36 16.11 20.56 16.31 20.7 16.55C20.84 16.79 20.93 17.05 20.95 17.32C20.98 17.59 20.95 17.87 20.84 18.13C20.74 18.39 20.58 18.62 20.38 18.8L18.81 20.44V20.44Z" stroke="black" stroke-width="1.5" stroke-miterlimit="10"/>
<path d="M21 3L14.98 9" stroke="black" stroke-width="1.5" stroke-miterlimit="10" stroke-linecap="round"/>
<path d="M21 9L14.98 3" stroke="black" stroke-width="1.5" stroke-miterlimit="10" stroke-linecap="round"/>
</g>
<defs>
<clipPath id="clip0_7_6631">
<rect width="24" height="24" fill="white"/>
</clipPath>
</defs>
</svg>
