<svg width="24" height="24" viewBox="0 0 24 24" fill="none" xmlns="http://www.w3.org/2000/svg">
<g clip-path="url(#clip0_7_6856)">
<path d="M12 6.29L4.27 3.07002C3.66 2.82002 3 3.28001 3 3.95001V17.56C3 17.98 3.27 18.35 3.66 18.47L12 20.99V6.28001V6.29Z" stroke="black" stroke-width="1.5" stroke-linecap="round" stroke-linejoin="round"/>
<path d="M12 6.25001L19.73 3.07002C20.34 2.82002 21 3.28001 21 3.95001V17.59C21 18.01 20.73 18.38 20.33 18.5L12 21V6.25001V6.25001Z" stroke="black" stroke-width="1.5" stroke-linecap="round" stroke-linejoin="round"/>
<path d="M16.96 9.24002H16.19C15.6377 9.24002 15.19 9.68774 15.19 10.24V11.01C15.19 11.5623 15.6377 12.01 16.19 12.01H16.96C17.5123 12.01 17.96 11.5623 17.96 11.01V10.24C17.96 9.68774 17.5123 9.24002 16.96 9.24002Z" stroke="black" stroke-width="1.5" stroke-linecap="round" stroke-linejoin="round"/>
<path d="M15.19 15.25H17.96" stroke="black" stroke-width="1.5" stroke-linecap="round" stroke-linejoin="round"/>
<path d="M8.99998 12.48H6.22998" stroke="black" stroke-width="1.5" stroke-linecap="round" stroke-linejoin="round"/>
<path d="M8.99998 9.71002H6.22998" stroke="black" stroke-width="1.5" stroke-linecap="round" stroke-linejoin="round"/>
</g>
<defs>
<clipPath id="clip0_7_6856">
<rect width="24" height="24" fill="white"/>
</clipPath>
</defs>
</svg>
