<svg width="24" height="24" viewBox="0 0 24 24" fill="none" xmlns="http://www.w3.org/2000/svg">
<g clip-path="url(#clip0_7_6709)">
<path d="M20.99 13.1C20.71 15.33 19.61 17.37 17.9 18.83C16.19 20.29 14.01 21.06 11.76 21C9.45999 20.91 7.27999 19.96 5.65999 18.33C4.03999 16.7 3.07999 14.53 2.99999 12.23C2.92999 9.99002 3.69999 7.8 5.15999 6.09C6.61999 4.38 8.65999 3.28002 10.89 3.01002C11.03 2.99002 11.18 3.00999 11.31 3.04999C11.45 3.08999 11.57 3.16002 11.68 3.26002C11.79 3.35002 11.87 3.47001 11.93 3.60001C11.99 3.73001 12.02 3.87002 12.02 4.01002V7.07001C12.02 7.31001 11.93 7.53 11.78 7.71C11.63 7.89 11.42 8.00999 11.18 8.04999C10.47 8.19999 9.81999 8.54001 9.28999 9.03001C8.75999 9.52001 8.36999 10.14 8.16999 10.84C7.96999 11.53 7.94999 12.27 8.12999 12.97C8.30999 13.67 8.66999 14.31 9.17999 14.82C9.68999 15.33 10.33 15.69 11.03 15.87C11.73 16.05 12.47 16.03 13.16 15.83C13.85 15.63 14.48 15.24 14.97 14.71C15.46 14.18 15.8 13.53 15.95 12.82C15.99 12.59 16.12 12.38 16.29 12.23C16.47 12.08 16.7 11.99 16.93 11.99H19.97C20.11 11.99 20.26 12.02 20.39 12.07C20.52 12.13 20.64 12.21 20.73 12.32C20.83 12.43 20.9 12.55 20.94 12.69C20.98 12.83 21 12.97 20.98 13.11L20.99 13.1Z" stroke="black" stroke-width="1.5" stroke-linecap="round" stroke-linejoin="round"/>
<path d="M12.04 5.45001C12.9 5.45001 13.74 5.62001 14.53 5.95001C15.32 6.28001 16.04 6.75999 16.64 7.35999C17.24 7.96999 17.72 8.68 18.05 9.47C18.38 10.26 18.54 11.11 18.54 11.96" stroke="black" stroke-width="1.5" stroke-linecap="round" stroke-linejoin="round"/>
</g>
<defs>
<clipPath id="clip0_7_6709">
<rect width="24" height="24" fill="white"/>
</clipPath>
</defs>
</svg>
