<svg width="24" height="24" viewBox="0 0 24 24" fill="none" xmlns="http://www.w3.org/2000/svg">
<g clip-path="url(#clip0_7_6654)">
<path d="M11.07 14H9.91C9.12 14 8.49 14.64 8.49 15.42V19.58C8.49 20.36 9.12 21 9.91 21H11.07C11.86 21 12.49 20.36 12.49 19.58V15.42C12.49 14.64 11.86 14 11.07 14Z" stroke="black" stroke-width="1.5" stroke-miterlimit="10"/>
<path d="M15.5 5.5H16.75C17.11 5.5 17.47 5.57002 17.8 5.71002C18.13 5.85002 18.43 6.05 18.69 6.31C18.95 6.57 19.15 6.87001 19.29 7.20001C19.43 7.53001 19.5 7.89 19.5 8.25C19.5 8.98 19.21 9.68 18.69 10.19C18.18 10.71 17.48 10.99 16.75 10.99H13.25C12.89 10.99 12.53 11.06 12.2 11.2C11.87 11.34 11.57 11.54 11.31 11.8C11.05 12.06 10.85 12.36 10.71 12.69C10.57 13.02 10.5 13.38 10.5 13.74V13.99" stroke="black" stroke-width="1.5" stroke-miterlimit="10"/>
<path d="M13.6 3H6.39C5.35 3 4.5 3.85001 4.5 4.89001V6.09998C4.5 7.14998 5.35 7.98999 6.39 7.98999H13.6C14.64 7.98999 15.49 7.13998 15.49 6.09998V4.89001C15.49 3.84001 14.64 3 13.6 3Z" stroke="black" stroke-width="1.5" stroke-miterlimit="10"/>
</g>
<defs>
<clipPath id="clip0_7_6654">
<rect width="24" height="24" fill="white"/>
</clipPath>
</defs>
</svg>
