<svg width="24" height="24" viewBox="0 0 24 24" fill="none" xmlns="http://www.w3.org/2000/svg">
<g clip-path="url(#clip0_7_6873)">
<path d="M16 5.70001H8C5.79086 5.70001 4 7.49087 4 9.70001V17C4 19.2092 5.79086 21 8 21H16C18.2091 21 20 19.2092 20 17V9.70001C20 7.49087 18.2091 5.70001 16 5.70001Z" stroke="black" stroke-width="1.5" stroke-linejoin="round"/>
<path d="M8.40002 3V5.7" stroke="black" stroke-width="1.5" stroke-linecap="round" stroke-linejoin="round"/>
<path d="M15.6 3V5.7" stroke="black" stroke-width="1.5" stroke-linecap="round" stroke-linejoin="round"/>
<path d="M20.1 10.2H3.90002" stroke="black" stroke-width="1.5" stroke-linejoin="round"/>
<path d="M8.28998 13.8H8.51001" stroke="black" stroke-width="1.5" stroke-linecap="round" stroke-linejoin="round"/>
<path d="M11.32 13.8H12.68" stroke="black" stroke-width="1.5" stroke-linecap="round" stroke-linejoin="round"/>
<path d="M15.49 13.8H15.71" stroke="black" stroke-width="1.5" stroke-linecap="round" stroke-linejoin="round"/>
<path d="M8.28998 17.4H9.90997" stroke="black" stroke-width="1.5" stroke-linecap="round" stroke-linejoin="round"/>
<path d="M12.9 17.4H12.68" stroke="black" stroke-width="1.5" stroke-linecap="round" stroke-linejoin="round"/>
<path d="M15.49 17.4H15.71" stroke="black" stroke-width="1.5" stroke-linecap="round" stroke-linejoin="round"/>
</g>
<defs>
<clipPath id="clip0_7_6873">
<rect width="24" height="24" fill="white"/>
</clipPath>
</defs>
</svg>
