<svg width="24" height="24" viewBox="0 0 24 24" fill="none" xmlns="http://www.w3.org/2000/svg">
<g clip-path="url(#clip0_7_6699)">
<path d="M20.94 17.7C20.94 18.02 20.87 18.36 20.71 18.68C20.55 19 20.36 19.31 20.1 19.6C19.66 20.09 19.17 20.44 18.62 20.66C18.08 20.89 17.49 21 16.86 21C15.94 21 14.96 20.78 13.92 20.34C12.88 19.9 11.85 19.31 10.82 18.56C9.78001 17.8 8.79999 16.97 7.85999 16.04C6.92999 15.1 6.09001 14.12 5.35001 13.1C4.61001 12.07 4.01999 11.05 3.57999 10.03C3.14999 9 2.92999 8.02 2.92999 7.09C2.92999 6.48 3.04 5.89001 3.25 5.35001C3.47 4.80001 3.81001 4.30001 4.29001 3.85001C4.87001 3.28001 5.5 3 6.16 3C6.41 3 6.66001 3.05 6.89001 3.16C7.12001 3.27 7.32999 3.43 7.48999 3.66L9.57999 6.60001C9.73999 6.83001 9.86 7.03001 9.94 7.23001C10.02 7.42001 10.07 7.61 10.07 7.78C10.07 8 10.01 8.21001 9.88 8.42001C9.76 8.63001 9.59 8.84 9.38 9.06L8.69 9.76999C8.59 9.86999 8.54999 9.99 8.54999 10.13C8.54999 10.2 8.54999 10.26 8.57999 10.34C8.60999 10.41 8.62999 10.47 8.64999 10.52C8.80999 10.82 9.08999 11.2 9.48999 11.67C9.89999 12.14 10.33 12.61 10.8 13.09C11.29 13.57 11.76 14.01 12.23 14.41C12.7 14.81 13.09 15.08 13.39 15.24C13.44 15.26 13.49 15.29 13.55 15.31C13.62 15.34 13.69 15.35 13.78 15.35C13.93 15.35 14.05 15.3 14.15 15.2L14.84 14.53C15.07 14.3 15.28 14.13 15.49 14.03C15.7 13.9 15.9 13.84 16.13 13.84C16.3 13.84 16.48 13.88 16.68 13.96C16.88 14.04 17.09 14.16 17.31 14.31L20.29 16.42C20.52 16.58 20.69 16.77 20.79 17C20.88 17.23 20.93 17.45 20.93 17.7H20.94Z" stroke="black" stroke-width="1.5" stroke-miterlimit="10"/>
</g>
<defs>
<clipPath id="clip0_7_6699">
<rect width="24" height="24" fill="white"/>
</clipPath>
</defs>
</svg>
