<svg width="24" height="24" viewBox="0 0 24 24" fill="none" xmlns="http://www.w3.org/2000/svg">
<g clip-path="url(#clip0_7_6634)">
<path d="M18.88 20.44C18.5 20.79 18 20.98 17.49 21C16.1 21 13.17 20.15 8.5 15.52C3.84 10.89 3.03 7.93002 3 6.59002C3 6.08002 3.20999 5.59001 3.54999 5.21001L5.20001 3.57C5.39001 3.37 5.62 3.21999 5.88 3.11999C6.15 3.01999 6.42001 2.99 6.70001 3.01C6.97001 3.03 7.23 3.12 7.47 3.26C7.71 3.4 7.91 3.59 8.06 3.82L9.39999 5.71996C9.52999 5.93996 9.62001 6.18999 9.64001 6.43999C9.64001 6.69999 9.6 6.94999 9.5 7.18999L8.54999 8.90996C8.48999 9.03996 8.45999 9.19002 8.45999 9.34002C8.45999 9.49002 8.48999 9.63001 8.54999 9.77001C9.14999 10.98 9.97001 12.07 10.98 12.97C11.89 13.98 12.97 14.8 14.19 15.39C14.32 15.45 14.48 15.48 14.63 15.48C14.77 15.48 14.93 15.45 15.06 15.39L16.79 14.5C17.02 14.39 17.28 14.34 17.53 14.36C17.79 14.37 18.04 14.45 18.25 14.59L20.16 15.94C20.39 16.09 20.59 16.29 20.73 16.53C20.86 16.77 20.96 17.03 20.98 17.3C21.01 17.57 20.98 17.85 20.87 18.11C20.76 18.37 20.61 18.6 20.41 18.79L18.88 20.44Z" stroke="black" stroke-width="1.5" stroke-miterlimit="10"/>
</g>
<defs>
<clipPath id="clip0_7_6634">
<rect width="24" height="24" fill="white"/>
</clipPath>
</defs>
</svg>
