<svg width="24" height="24" viewBox="0 0 24 24" fill="none" xmlns="http://www.w3.org/2000/svg">
<g clip-path="url(#clip0_7_6630)">
<path d="M18.77 20.44C18.04 20.88 17.9 20.98 17.39 21C16.02 21 13.1 20.15 8.48001 15.52C3.86001 10.9 3.05 7.93997 3 6.59997C3.02 6.08997 3.20999 5.60997 3.54999 5.22997L5.19 3.59002C5.38 3.39002 5.60999 3.24001 5.85999 3.14001C6.12999 3.04001 6.40001 3.01002 6.67001 3.03002C6.94001 3.05002 7.2 3.14002 7.44 3.28002C7.68 3.42002 7.88 3.61002 8.03 3.84002L9.37 5.72997C9.5 5.94997 9.58999 6.2 9.60999 6.45C9.60999 6.71 9.57 6.96 9.47 7.2L8.57999 8.90996C8.51999 9.03996 8.48999 9.19002 8.48999 9.34002C8.48999 9.49002 8.52999 9.63001 8.57999 9.77001C9.16999 10.98 9.99 12.06 11 12.96C11.89 13.97 12.98 14.79 14.19 15.38C14.32 15.44 14.46 15.47 14.62 15.47C14.78 15.47 14.91 15.44 15.05 15.38L16.79 14.53C17.02 14.42 17.27 14.37 17.53 14.39C17.79 14.4 18.03 14.48 18.25 14.62L20.14 15.97C20.37 16.12 20.57 16.32 20.71 16.56C20.84 16.8 20.94 17.06 20.96 17.33C20.99 17.6 20.96 17.88 20.86 18.14C20.76 18.4 20.6 18.63 20.41 18.82C20.41 18.82 19.5 20 18.77 20.44Z" stroke="black" stroke-width="1.5" stroke-miterlimit="10"/>
<path d="M15 9L21 3" stroke="black" stroke-width="1.5" stroke-miterlimit="10" stroke-linecap="round"/>
<path d="M21 7V3H17" stroke="black" stroke-width="1.5" stroke-linecap="round" stroke-linejoin="round"/>
</g>
<defs>
<clipPath id="clip0_7_6630">
<rect width="24" height="24" fill="white"/>
</clipPath>
</defs>
</svg>
