<svg width="24" height="24" viewBox="0 0 24 24" fill="none" xmlns="http://www.w3.org/2000/svg">
<g clip-path="url(#clip0_7_6828)">
<path d="M21 12.59C21 13.17 20.89 13.75 20.66 14.29C20.44 14.83 20.11 15.32 19.69 15.73C19.27 16.14 18.78 16.47 18.23 16.69C17.68 16.91 17.09 17.03 16.5 17.03H15.72C15.91 16.53 16.01 16.01 16.01 15.48C16.01 14.87 15.89 14.27 15.65 13.72C15.41 13.16 15.07 12.65 14.63 12.23C14.2 11.81 13.68 11.47 13.11 11.25C12.54 11.03 11.93 10.92 11.32 10.93C10.39 10.93 9.47001 11.19 8.70001 11.7C7.92001 12.21 7.32002 12.93 6.96002 13.78C6.73002 13.74 6.49001 13.71 6.26001 13.72C5.54001 13.72 4.85003 13.94 4.28003 14.37C3.46003 13.28 3.02002 11.95 3.02002 10.59C2.97002 9.07004 3.46999 7.58004 4.42999 6.40004C5.38999 5.21004 6.75001 4.40001 8.26001 4.12001C9.77001 3.83001 11.33 4.09004 12.67 4.84004C14.01 5.59004 15.02 6.78999 15.55 8.21999C15.85 8.14999 16.16 8.12001 16.47 8.12001C17.07 8.12001 17.66 8.23003 18.21 8.45003C18.76 8.67003 19.26 9 19.69 9.42C20.11 9.84 20.45 10.33 20.67 10.88C20.89 11.43 21.01 12.01 21 12.6V12.59Z" stroke="black" stroke-width="1.5" stroke-linecap="round" stroke-linejoin="round"/>
<path d="M16.02 15.48C16.02 16.01 15.93 16.5401 15.73 17.0301C15.39 17.9101 14.78 18.66 13.99 19.19C13.2 19.72 12.26 20 11.31 19.99H6.23999C5.81999 19.99 5.40001 19.92 5.01001 19.77C4.61001 19.62 4.26002 19.39 3.96002 19.1C3.66002 18.81 3.42 18.46 3.25 18.08C3.08 17.7 2.99999 17.29 2.98999 16.87C2.98999 16.39 3.11002 15.91 3.33002 15.48C3.56002 15.05 3.88003 14.68 4.28003 14.4C4.85003 13.97 5.54001 13.75 6.26001 13.75C6.50001 13.75 6.73002 13.77 6.96002 13.81C7.32002 12.96 7.93001 12.24 8.70001 11.73C9.48001 11.22 10.39 10.95 11.32 10.96C11.93 10.96 12.53 11.06 13.09 11.29C13.65 11.51 14.17 11.85 14.6 12.27C15.03 12.69 15.38 13.19 15.62 13.74C15.86 14.29 15.98 14.89 15.99 15.49L16.02 15.48Z" stroke="black" stroke-width="1.5" stroke-linecap="round" stroke-linejoin="round"/>
</g>
<defs>
<clipPath id="clip0_7_6828">
<rect width="24" height="24" fill="white"/>
</clipPath>
</defs>
</svg>
