<svg width="24" height="24" viewBox="0 0 24 24" fill="none" xmlns="http://www.w3.org/2000/svg">
<g clip-path="url(#clip0_7_6833)">
<path d="M12.14 11.61C16.76 10.8 20.18 8.26998 19.77 5.95998C19.36 3.64998 15.28 2.43999 10.66 3.24999C6.03998 4.05999 2.62004 6.58998 3.03004 8.89998C3.44004 11.21 7.51002 12.42 12.14 11.61Z" stroke="black" stroke-width="1.5" stroke-miterlimit="10" stroke-linecap="round"/>
<path d="M4.21995 10.61C4.06995 11.73 4.81997 12.91 6.10997 13.89C7.80997 15.07 9.74996 15.85 11.79 16.17C15.35 16.79 18.58 16.22 20.07 14.88C20.5 14.52 20.79 14.02 20.9 13.47C21.14 12.04 19.94 10.53 17.88 9.39999" stroke="black" stroke-width="1.5" stroke-miterlimit="10" stroke-linecap="round"/>
<path d="M20.14 14.87C20.4 15.11 20.61 15.4 20.76 15.73C20.91 16.05 20.99 16.41 21 16.76C21 19.1 17.21 21 12.47 21C7.72997 21 3.94 19.11 3.94 16.76C3.94 15.67 4.75999 14.68 6.10999 13.93" stroke="black" stroke-width="1.5" stroke-miterlimit="10" stroke-linecap="round"/>
</g>
<defs>
<clipPath id="clip0_7_6833">
<rect width="24" height="24" fill="white"/>
</clipPath>
</defs>
</svg>
