<svg width="24" height="24" viewBox="0 0 24 24" fill="none" xmlns="http://www.w3.org/2000/svg">
<g clip-path="url(#clip0_7_6652)">
<path d="M18.01 19.45V21H6.01001V19.45C6.01001 19.03 6.14001 18.62 6.39001 18.28C6.64001 17.94 6.98 17.69 7.38 17.55C10.39 16.56 13.63 16.56 16.65 17.55C17.05 17.68 17.39 17.94 17.64 18.28C17.89 18.62 18.03 19.03 18.03 19.45H18.01Z" stroke="black" stroke-width="1.5" stroke-linejoin="round"/>
<path d="M15.01 13.25C14.09 13.78 13.06 14.06 12 14.06C10.94 14.06 9.91001 13.78 8.99001 13.25C8.23001 12.81 7.61001 12.18 7.17001 11.42C6.73001 10.66 6.51001 9.79999 6.51001 8.92999V3H17.51V8.92999C17.51 9.79999 17.27 10.66 16.84 11.42C16.4 12.18 15.78 12.81 15.02 13.25H15.01Z" stroke="black" stroke-width="1.5" stroke-linejoin="round"/>
<path d="M12 14.07V16.8" stroke="black" stroke-width="1.5" stroke-miterlimit="10"/>
<path d="M6.51 5H3V8.58002C3 9.27002 3.24 9.92997 3.66 10.47C4.1 11 4.69 11.38 5.37 11.52L7.62 12" stroke="black" stroke-width="1.5" stroke-linejoin="round"/>
<path d="M17.5 5H21V8.58002C21 9.26002 20.76 9.93002 20.34 10.46C19.91 10.99 19.32 11.37 18.64 11.51L16.39 11.99" stroke="black" stroke-width="1.5" stroke-linejoin="round"/>
</g>
<defs>
<clipPath id="clip0_7_6652">
<rect width="24" height="24" fill="white"/>
</clipPath>
</defs>
</svg>
