<svg width="24" height="24" viewBox="0 0 24 24" fill="none" xmlns="http://www.w3.org/2000/svg">
<g clip-path="url(#clip0_7_6633)">
<path d="M11.04 12.99C11.93 14 13.03 14.83 14.24 15.41C14.37 15.47 14.52 15.5 14.67 15.5C14.82 15.5 14.96 15.47 15.1 15.41L16.82 14.52C17.05 14.41 17.3 14.37 17.56 14.38C17.82 14.4 18.06 14.48 18.28 14.61L20.18 15.95C20.41 16.1 20.6 16.3 20.74 16.54C20.88 16.78 20.97 17.04 21 17.31C21.02 17.58 20.98 17.86 20.89 18.12C20.79 18.38 20.64 18.61 20.44 18.8L18.8 20.44C18.42 20.78 17.93 20.98 17.41 20.99C16.03 20.94 13.11 20.14 8.46997 15.5" stroke="black" stroke-width="1.5" stroke-miterlimit="10"/>
<path d="M6.71002 13.63C3.63002 10.09 3.04 7.77997 3 6.59997C3.02 6.08997 3.20999 5.60001 3.54999 5.21001L5.19 3.57C5.38 3.37 5.61 3.21999 5.87 3.11999C6.13 3.01999 6.39998 2.99 6.66998 3.01C6.94998 3.03 7.21001 3.12 7.45001 3.26C7.69001 3.4 7.88998 3.59 8.03998 3.82L9.38 5.71996C9.51 5.93996 9.6 6.17999 9.62 6.43999C9.62 6.69999 9.57998 6.94998 9.47998 7.17998L8.59003 8.90002C8.53003 9.03002 8.5 9.18001 8.5 9.33001C8.5 9.48001 8.54003 9.62 8.59003 9.76C8.79003 10.19 9.02998 10.6 9.28998 10.99" stroke="black" stroke-width="1.5" stroke-miterlimit="10" stroke-linecap="round"/>
<path d="M18.54 5.47998L5.5 18.52" stroke="black" stroke-width="1.5" stroke-linecap="round" stroke-linejoin="round"/>
</g>
<defs>
<clipPath id="clip0_7_6633">
<rect width="24" height="24" fill="white"/>
</clipPath>
</defs>
</svg>
