<svg width="24" height="24" viewBox="0 0 24 24" fill="none" xmlns="http://www.w3.org/2000/svg">
<g clip-path="url(#clip0_3787_24745)">
<path d="M3.42982 8.71002L6.45982 4.82001C6.64982 4.56001 6.90982 4.36002 7.19982 4.21002C7.48982 4.07002 7.79982 3.98999 8.11982 3.98999H15.8798C16.1998 3.98999 16.5198 4.06002 16.7998 4.21002C17.0998 4.35002 17.3398 4.56001 17.5498 4.82001L20.5798 8.71002C20.8698 9.07002 21.0098 9.52999 20.9898 9.98999C20.9598 10.45 20.7798 10.89 20.4598 11.23L12.6798 19.69C12.5998 19.79 12.4898 19.87 12.3698 19.92C12.2598 19.97 12.1298 20 11.9998 20C11.8698 20 11.7398 19.97 11.6298 19.92C11.5098 19.87 11.3998 19.79 11.3198 19.69L3.52982 11.24C3.20982 10.91 3.01982 10.46 2.99982 9.98999C2.97982 9.51999 3.12982 9.06001 3.41982 8.70001L3.42982 8.71002Z" stroke="#181818" stroke-width="1.5" stroke-miterlimit="10"/>
<path d="M3.09961 10.02H20.9096" stroke="#181818" stroke-width="1.5" stroke-miterlimit="10"/>
<path d="M12.9998 4L14.9798 10.02L12.0098 19.98" stroke="#181818" stroke-width="1.5" stroke-miterlimit="10"/>
</g>
<defs>
<clipPath id="clip0_3787_24745">
<rect width="24" height="24" fill="white"/>
</clipPath>
</defs>
</svg>
