<svg width="24" height="24" viewBox="0 0 24 24" fill="none" xmlns="http://www.w3.org/2000/svg">
<g clip-path="url(#clip0_7_6864)">
<path d="M6.85001 19.29C7.82001 19.02 8.66 18.76 9.38 18.52" stroke="black" stroke-width="1.5" stroke-linecap="round" stroke-linejoin="round"/>
<path d="M12 21C16.9706 21 21 16.9706 21 12C21 7.02944 16.9706 3 12 3C7.02944 3 3 7.02944 3 12C3 16.9706 7.02944 21 12 21Z" stroke="black" stroke-width="1.5" stroke-linecap="round" stroke-linejoin="round"/>
<path d="M16.34 19.62C14.36 18.88 12 17.55 12 17.55C12 17.55 7.85999 15.3 6.89999 12.3C6.29999 10.43 6.99999 8.29 8.96999 7.65C9.99999 7.32 11.15 7.51001 12 8.16001C12.81 7.53001 14 7.32 15.03 7.65C17 8.28 17.7 10.42 17.1 12.3C16.64 13.76 15.4 15.05 14.26 15.99" stroke="black" stroke-width="1.5" stroke-linecap="round"/>
</g>
<defs>
<clipPath id="clip0_7_6864">
<rect width="24" height="24" fill="white"/>
</clipPath>
</defs>
</svg>
