<svg width="24" height="24" viewBox="0 0 24 24" fill="none" xmlns="http://www.w3.org/2000/svg">
<g clip-path="url(#clip0_7_6718)">
<path d="M18.5 11.51V16.52C18.48 16.87 18.37 17.21 18.2 17.51C18.02 17.81 17.77 18.07 17.47 18.26L13 20.76C12.68 20.91 12.33 20.99 11.98 20.99C11.63 20.99 11.27 20.91 10.95 20.76L6.53 18.26C6.23 18.07 5.98999 17.81 5.79999 17.51C5.62999 17.21 5.52 16.87 5.5 16.52V11.51C5.52 11.16 5.62999 10.82 5.79999 10.52C5.97999 10.22 6.23 9.96002 6.53 9.77002L8.37 8.75L11 7.27002C11.32 7.12002 11.67 7.03998 12.03 7.03998C12.39 7.03998 12.73 7.12002 13.05 7.27002L15.68 8.75L17.52 9.77002C17.81 9.97002 18.04 10.23 18.22 10.53C18.39 10.83 18.48 11.17 18.5 11.51Z" stroke="black" stroke-width="1.5" stroke-miterlimit="10" stroke-linecap="round"/>
<path d="M16.62 4.89L15.65 8.74998L13.02 7.27C12.7 7.12 12.35 7.03996 11.99 7.03996C11.63 7.03996 11.29 7.12 10.97 7.27L8.34001 8.74998L7.37001 4.89C7.29001 4.67 7.27001 4.42999 7.31001 4.18999C7.35001 3.94999 7.45001 3.73997 7.59001 3.54997C7.74001 3.35997 7.93001 3.20998 8.15001 3.11998C8.37001 3.02998 8.62 2.97998 8.86 2.99998H15.18C15.42 2.98998 15.66 3.02999 15.87 3.12999C16.09 3.22999 16.28 3.37999 16.42 3.56999C16.57 3.75999 16.65 3.98001 16.69 4.21001C16.73 4.44001 16.6705 4.74751 16.6005 4.96751L16.62 4.89Z" stroke="black" stroke-width="1.5" stroke-miterlimit="10" stroke-linecap="round"/>
<path d="M11.98 16.01C13.09 16.01 13.97 15.12 13.97 14.02C13.97 12.92 13.08 12.03 11.98 12.03C10.88 12.03 9.98999 12.92 9.98999 14.02C9.98999 15.12 10.88 16.01 11.98 16.01Z" stroke="black" stroke-width="1.5" stroke-miterlimit="10" stroke-linecap="round"/>
</g>
<defs>
<clipPath id="clip0_7_6718">
<rect width="24" height="24" fill="white"/>
</clipPath>
</defs>
</svg>
