<svg width="24" height="24" viewBox="0 0 24 24" fill="none" xmlns="http://www.w3.org/2000/svg">
<g clip-path="url(#clip0_7_6750)">
<path d="M14.7 6.60001V9.3H12.9C10.92 9.3 9.29999 10.92 9.29999 12.9V14.7H6.59998C4.61998 14.7 3 13.08 3 11.1V6.60001C3 4.62001 4.61998 3 6.59998 3H11.1C13.08 3 14.7 4.62001 14.7 6.60001Z" stroke="black" stroke-width="1.5"/>
<path d="M17.4 9.29999H12.9C10.9118 9.29999 9.29999 10.9118 9.29999 12.9V17.4C9.29999 19.3882 10.9118 21 12.9 21H17.4C19.3882 21 21 19.3882 21 17.4V12.9C21 10.9118 19.3882 9.29999 17.4 9.29999Z" stroke="black" stroke-width="1.5"/>
</g>
<defs>
<clipPath id="clip0_7_6750">
<rect width="24" height="24" fill="white"/>
</clipPath>
</defs>
</svg>
