<svg width="24" height="24" viewBox="0 0 24 24" fill="none" xmlns="http://www.w3.org/2000/svg">
<g clip-path="url(#clip0_7_6680)">
<path d="M17 3H7C4.79086 3 3 4.79086 3 7V17C3 19.2091 4.79086 21 7 21H17C19.2091 21 21 19.2091 21 17V7C21 4.79086 19.2091 3 17 3Z" stroke="black" stroke-width="1.5" stroke-linejoin="round"/>
<path d="M14.42 12.64L11.01 16.05C10.86 16.2 10.68 16.28 10.48 16.3L8.44002 16.49C7.91002 16.54 7.46003 16.09 7.51003 15.55L7.69002 13.57C7.71002 13.36 7.79002 13.18 7.94002 13.04L11.39 9.59L14.43 12.64H14.42Z" stroke="black" stroke-width="1.5" stroke-linejoin="round"/>
<path d="M16.25 10.81L14.42 12.64L11.38 9.58999L13.21 7.76C13.55 7.42 14.09 7.42 14.42 7.76L16.25 9.58999C16.58 9.92999 16.58 10.48 16.25 10.81V10.81Z" stroke="black" stroke-width="1.5" stroke-linejoin="round"/>
</g>
<defs>
<clipPath id="clip0_7_6680">
<rect width="24" height="24" fill="white"/>
</clipPath>
</defs>
</svg>
