<svg width="24" height="24" viewBox="0 0 24 24" fill="none" xmlns="http://www.w3.org/2000/svg">
<g clip-path="url(#clip0_7_6770)">
<path d="M21 12V17.4C21 19.38 19.38 21 17.4 21H6.59998C4.61998 21 3 19.38 3 17.4V6.60001C3 4.62001 4.61998 3 6.59998 3H12" stroke="black" stroke-width="1.5" stroke-linecap="round" stroke-linejoin="round"/>
<path d="M18.5 9.17001L14.4 13.27C14.22 13.45 14.01 13.55 13.76 13.57L11.31 13.8C10.67 13.86 10.13 13.31 10.19 12.67L10.41 10.29C10.43 10.04 10.53 9.81999 10.71 9.64999L14.85 5.51001L18.5 9.17001V9.17001Z" stroke="black" stroke-width="1.5" stroke-linejoin="round"/>
<path d="M20.7 6.98002L18.5 9.17003L14.85 5.51002L17.04 3.32002C17.44 2.92002 18.1 2.92002 18.5 3.32002L20.7 5.51002C21.09 5.91002 21.09 6.58002 20.7 6.98002V6.98002Z" stroke="black" stroke-width="1.5" stroke-linejoin="round"/>
</g>
<defs>
<clipPath id="clip0_7_6770">
<rect width="24" height="24" fill="white"/>
</clipPath>
</defs>
</svg>
