<svg width="24" height="24" viewBox="0 0 24 24" fill="none" xmlns="http://www.w3.org/2000/svg">
<g clip-path="url(#clip0_7_6816)">
<path d="M15.86 4.39999L13.12 9.47C12.85 9.99 13.09 10.62 13.63 10.81L17.38 12.12C17.99 12.34 18.2 13.13 17.77 13.63L11.53 20.83C11.19 21.23 10.57 20.92 10.63 20.42L11.32 15.47C11.38 15.02 11.13 14.61 10.72 14.46L6.61002 12.95C6.09002 12.77 5.85002 12.15 6.10002 11.64L10.12 3.53C10.27 3.22 10.58 3.01001 10.93 3.01001H15.03C15.75 3.03001 16.1797 3.79908 15.8497 4.41908L15.86 4.39999Z" stroke="black" stroke-width="1.5" stroke-miterlimit="10" stroke-linecap="round"/>
</g>
<defs>
<clipPath id="clip0_7_6816">
<rect width="24" height="24" fill="white"/>
</clipPath>
</defs>
</svg>
