<svg width="24" height="24" viewBox="0 0 24 24" fill="none" xmlns="http://www.w3.org/2000/svg">
<g clip-path="url(#clip0_7_6769)">
<path d="M15.55 3H17.4C19.38 3 21 4.62001 21 6.60001V8.31" stroke="black" stroke-width="1.5" stroke-linecap="round" stroke-linejoin="round"/>
<path d="M3 8.35001V6.60001C3 4.62001 4.62001 3 6.60001 3H8.32001" stroke="black" stroke-width="1.5" stroke-linecap="round" stroke-linejoin="round"/>
<path d="M8.35001 21H6.60001C4.62001 21 3 19.38 3 17.4V15.61" stroke="black" stroke-width="1.5" stroke-linecap="round" stroke-linejoin="round"/>
<path d="M21 15.61V17.4C21 19.38 19.38 21 17.4 21H15.62" stroke="black" stroke-width="1.5" stroke-linecap="round" stroke-linejoin="round"/>
<path d="M8.40002 7.60999V9.40999" stroke="black" stroke-width="1.5" stroke-linecap="round" stroke-linejoin="round"/>
<path d="M15.6 7.60999V9.40999" stroke="black" stroke-width="1.5" stroke-linecap="round" stroke-linejoin="round"/>
<path d="M12 8.95999V12.12C12 12.4 11.87 12.66 11.65 12.83L11.1 13.26" stroke="black" stroke-width="1.5" stroke-linecap="round" stroke-linejoin="round"/>
<path d="M14.49 16.02C13.92 16.75 13.03 17.22 12.04 17.22C11.05 17.22 10.08 16.71 9.52002 15.93" stroke="black" stroke-width="1.5" stroke-linecap="round" stroke-linejoin="round"/>
</g>
<defs>
<clipPath id="clip0_7_6769">
<rect width="24" height="24" fill="white"/>
</clipPath>
</defs>
</svg>
