<svg width="24" height="24" viewBox="0 0 24 24" fill="none" xmlns="http://www.w3.org/2000/svg">
<g clip-path="url(#clip0_7_6692)">
<path d="M13.87 12.47L14.51 13.11L16.43 11.19" stroke="black" stroke-width="1.5" stroke-linecap="round" stroke-linejoin="round"/>
<path d="M21 9.89001C20.94 10.85 20.67 13.1 19.61 14.64C19.23 15.18 18.77 15.69 18.3 16.15C18.11 16.34 17.91 16.52 17.72 16.69C16.84 17.46 15.97 18.02 15.51 18.31C15.29 18.45 15.02 18.45 14.81 18.31C13.99 17.78 11.89 16.34 10.66 14.58C9.60998 13.06 9.35999 10.84 9.29999 9.88C9.27999 9.61 9.45003 9.35999 9.71003 9.24999C11.9 8.32999 13.86 6.69 14.7 5.92C14.96 5.7 15.34 5.7 15.58 5.92C16.02 6.33 16.77 6.95999 17.7 7.61999C17.89 7.74999 18.09 7.87998 18.28 8.01998C18.98 8.47998 19.76 8.91999 20.57 9.24999C20.84 9.35999 21 9.61001 20.98 9.89001H21Z" stroke="black" stroke-width="1.5" stroke-linecap="round" stroke-linejoin="round"/>
<path d="M9.29999 9.88C9.34999 10.83 9.60997 13.06 10.66 14.58C11.88 16.34 13.99 17.78 14.81 18.31C15.03 18.45 15.3 18.45 15.51 18.31C15.97 18.02 16.83 17.46 17.72 16.69C17.92 16.52 18.12 16.34 18.3 16.15V17.39C18.3 19.37 16.68 20.99 14.7 20.99H6.59998C4.61998 20.99 3 19.37 3 17.39V6.59C3 4.61 4.61998 2.98999 6.59998 2.98999H14.7C16.68 2.98999 18.3 4.61 18.3 6.59V8.01001C18.1 7.88001 17.9 7.74999 17.72 7.60999C16.78 6.94999 16.04 6.31 15.6 5.91C15.36 5.69 14.98 5.69 14.72 5.91C13.87 6.68 11.91 8.31999 9.72998 9.23999C9.46998 9.34999 9.30001 9.6 9.32001 9.87L9.29999 9.88Z" stroke="black" stroke-width="1.5" stroke-linecap="round" stroke-linejoin="round"/>
</g>
<defs>
<clipPath id="clip0_7_6692">
<rect width="24" height="24" fill="white"/>
</clipPath>
</defs>
</svg>
