<svg width="24" height="24" viewBox="0 0 24 24" fill="none" xmlns="http://www.w3.org/2000/svg">
<g clip-path="url(#clip0_7_6852)">
<path d="M8.52002 3H5.70001C4.21001 3 2.98999 4.21 2.98999 5.7V18.3C2.98999 19.79 4.20001 21 5.70001 21H18.29C19.78 21 21 19.79 21 18.3V9.3C21 7.81 19.79 6.6 18.29 6.6H12.56C12.22 6.6 11.91 6.41 11.75 6.1L10.94 4.49C10.48 3.58 9.54002 3 8.52002 3V3Z" stroke="black" stroke-width="1.5" stroke-linecap="round" stroke-linejoin="round"/>
<path d="M18.31 6.59999V5.67999C18.29 4.68999 17.49 3.89999 16.5 3.89999H11.1" stroke="black" stroke-width="1.5" stroke-linecap="round" stroke-linejoin="round"/>
<path d="M7.48999 16.5H11.1" stroke="black" stroke-width="1.5" stroke-linecap="round" stroke-linejoin="round"/>
</g>
<defs>
<clipPath id="clip0_7_6852">
<rect width="24" height="24" fill="white"/>
</clipPath>
</defs>
</svg>
