<svg width="24" height="24" viewBox="0 0 24 24" fill="none" xmlns="http://www.w3.org/2000/svg">
<g clip-path="url(#clip0_7_6702)">
<path d="M12.01 14.96C11.1 14.96 10.36 14.2 10.36 13.26V10.72C10.36 9.78002 11.1 9.02002 12.01 9.02002C12.92 9.02002 13.66 9.78002 13.66 10.72V13.26C13.66 14.2 12.92 14.96 12.01 14.96Z" stroke="black" stroke-width="1.5" stroke-linecap="round"/>
<path d="M16.99 13.51C16.79 16.16 14.63 18.24 12.01 18.24C9.25001 18.24 7.01001 15.94 7.01001 13.1V10.9C7.01001 8.06001 9.25001 5.76001 12.01 5.76001C14.6 5.76001 16.73 7.79002 16.98 10.38" stroke="black" stroke-width="1.5" stroke-linecap="round"/>
<path d="M5.32001 7.22C6.56001 4.72 9.1 3 12 3C16.12 3 19.5 6.47001 19.5 10.71V13.28C19.5 17.52 16.13 20.99 12 20.99C7.88 20.99 4.5 17.52 4.5 13.28V10.71" stroke="black" stroke-width="1.5" stroke-linecap="round"/>
</g>
<defs>
<clipPath id="clip0_7_6702">
<rect width="24" height="24" fill="white"/>
</clipPath>
</defs>
</svg>
