<svg width="24" height="24" viewBox="0 0 24 24" fill="none" xmlns="http://www.w3.org/2000/svg">
<g clip-path="url(#clip0_7_6623)">
<path d="M11.98 18.5C15.6 18.5 18.52 15.59 18.52 12C18.52 8.41 15.6 5.5 11.98 5.5C8.35998 5.5 5.44 8.41 5.44 12C5.44 15.59 8.35998 18.5 11.98 18.5Z" stroke="black" stroke-width="1.5" stroke-miterlimit="10" stroke-linecap="round"/>
<path d="M5.59004 13.37C3.70004 15.1 2.64999 16.62 3.09999 17.36C3.54999 18.1 5.37003 17.91 7.83003 17C9.76003 16.26 11.63 15.34 13.39 14.25C15.17 13.2 16.85 11.98 18.39 10.61C20.33 8.88 21.34 7.36001 20.89 6.62001C20.44 5.88001 18.61 6.07001 16.16 6.99001" stroke="black" stroke-width="1.5" stroke-miterlimit="10" stroke-linecap="round"/>
</g>
<defs>
<clipPath id="clip0_7_6623">
<rect width="24" height="24" fill="white"/>
</clipPath>
</defs>
</svg>
