<svg width="24" height="24" viewBox="0 0 24 24" fill="none" xmlns="http://www.w3.org/2000/svg">
<g clip-path="url(#clip0_7_6653)">
<path d="M3.43 8.71002L6.46 4.82001C6.65 4.56001 6.91 4.36002 7.2 4.21002C7.49 4.07002 7.8 3.98999 8.12 3.98999H15.88C16.2 3.98999 16.52 4.06002 16.8 4.21002C17.1 4.35002 17.34 4.56001 17.55 4.82001L20.58 8.71002C20.87 9.07002 21.01 9.52999 20.99 9.98999C20.96 10.45 20.78 10.89 20.46 11.23L12.68 19.69C12.6 19.79 12.49 19.87 12.37 19.92C12.26 19.97 12.13 20 12 20C11.87 20 11.74 19.97 11.63 19.92C11.51 19.87 11.4 19.79 11.32 19.69L3.53 11.24C3.21 10.91 3.02 10.46 3 9.98999C2.98 9.51999 3.13 9.06001 3.42 8.70001L3.43 8.71002Z" stroke="black" stroke-width="1.5" stroke-miterlimit="10"/>
<path d="M3.10001 10.02H20.91" stroke="black" stroke-width="1.5" stroke-miterlimit="10"/>
<path d="M13 4L14.98 10.02L12.01 19.98" stroke="black" stroke-width="1.5" stroke-miterlimit="10"/>
</g>
<defs>
<clipPath id="clip0_7_6653">
<rect width="24" height="24" fill="white"/>
</clipPath>
</defs>
</svg>
