<svg width="24" height="24" viewBox="0 0 24 24" fill="none" xmlns="http://www.w3.org/2000/svg">
<g clip-path="url(#clip0_7_6674)">
<path d="M3.28002 8.72L6.31002 4.82999C6.51002 4.57999 6.77002 4.37001 7.05002 4.23001C7.34002 4.09001 7.65002 4.02001 7.97002 4.01001H15.75C16.07 4.01001 16.39 4.08001 16.67 4.23001C16.96 4.37001 17.21 4.57999 17.41 4.82999L20.44 8.72C20.72 9.09 20.86 9.54 20.84 10C20.82 10.46 20.64 10.91 20.33 11.24L12.52 19.7C12.43 19.79 12.33 19.87 12.21 19.92C12.09 19.97 11.97 20 11.84 20C11.71 20 11.59 19.97 11.47 19.92C11.35 19.87 11.25 19.79 11.16 19.7L3.36002 11.24C3.05002 10.9 2.87002 10.46 2.85002 10C2.83002 9.54 2.97002 9.08 3.25002 8.72H3.28002Z" stroke="black" stroke-width="1.5" stroke-miterlimit="10"/>
<path d="M15.87 10.8L13.87 12.8" stroke="black" stroke-width="1.5" stroke-miterlimit="10" stroke-linecap="round"/>
</g>
<defs>
<clipPath id="clip0_7_6674">
<rect width="24" height="24" fill="white"/>
</clipPath>
</defs>
</svg>
