<svg width="24" height="24" viewBox="0 0 24 24" fill="none" xmlns="http://www.w3.org/2000/svg">
<g clip-path="url(#clip0_7_6647)">
<path d="M20.27 7.90995C21.25 8.39995 21.25 9.19999 20.27 9.69999L18.12 10.75L12.44 13.53C12.15 13.64 11.81 13.64 11.52 13.53L5.88002 10.75L3.73003 9.69999C2.75003 9.19999 2.75003 8.39995 3.73003 7.90995L11.55 4.09001C11.84 3.98001 12.18 3.98001 12.47 4.09001L20.27 7.90995V7.90995Z" stroke="black" stroke-width="1.5" stroke-miterlimit="10" stroke-linecap="round"/>
<path d="M18.12 10.75V15.86C18.1 16.23 17.98 16.58 17.79 16.89C17.59 17.2 17.32 17.46 17 17.64L12.45 19.89C12.3 19.96 12.15 19.99 11.99 19.99C11.83 19.99 11.68 19.96 11.53 19.89L6.98001 17.64C6.66001 17.46 6.38 17.2 6.19 16.89C5.99 16.58 5.87999 16.22 5.85999 15.86V10.75" stroke="black" stroke-width="1.5" stroke-miterlimit="10" stroke-linecap="round"/>
</g>
<defs>
<clipPath id="clip0_7_6647">
<rect width="24" height="24" fill="white"/>
</clipPath>
</defs>
</svg>
