<svg width="24" height="24" viewBox="0 0 24 24" fill="none" xmlns="http://www.w3.org/2000/svg">
<g clip-path="url(#clip0_7_6794)">
<path d="M21 4V20" stroke="black" stroke-width="1.5" stroke-miterlimit="10" stroke-linecap="round"/>
<path d="M4.85001 19.5H15.16C16.17 19.5 17.01 18.67 17.01 17.65V15.34C17.01 14.32 16.18 13.49 15.16 13.49H4.85001C3.84001 13.49 3 14.32 3 15.34V17.65C3 18.67 3.83001 19.5 4.85001 19.5Z" stroke="black" stroke-width="1.5" stroke-miterlimit="10"/>
<path d="M8.85999 10.5H15.16C16.17 10.5 17.01 9.67002 17.01 8.65002V6.34003C17.01 5.32003 16.18 4.48999 15.16 4.48999H8.85999C7.84999 4.48999 7.01001 5.32003 7.01001 6.34003V8.65002C7.01001 9.67002 7.83999 10.5 8.85999 10.5Z" stroke="black" stroke-width="1.5" stroke-miterlimit="10"/>
</g>
<defs>
<clipPath id="clip0_7_6794">
<rect width="24" height="24" fill="white"/>
</clipPath>
</defs>
</svg>
