<svg width="24" height="24" viewBox="0 0 24 24" fill="none" xmlns="http://www.w3.org/2000/svg">
	<path d="M22.0002 17.0208V13.0416L21.9759 12.6779C21.8607 10.9593 21.338 9.34752 20.5001 7.9502M15.5898 17.8012C15.4206 16.9103 15.4206 15.9944 15.5898 15.1035C15.8619 13.6716 16.8983 12.5183 18.27 12.121L18.561 12.0367C18.8634 11.9491 19.1762 11.9047 19.4906 11.9047C20.8766 11.9047 22.0002 13.0544 22.0002 14.4727V18.432C22.0002 19.8503 20.8766 21 19.4906 21C19.1762 21 18.8634 20.9556 18.561 20.868L18.27 20.7837C16.8983 20.3865 15.8619 19.2331 15.5898 17.8012Z" stroke="currentColor" stroke-width="1.5" stroke-linecap="round" />
	<path d="M2.00003 17.0208V13.0416L2.02441 12.678C2.33807 7.99856 5.672 4.112 10.1659 3.18694C11.3765 2.93774 12.6235 2.93774 13.8341 3.18694C15.5049 3.53086 17.0153 4.28413 18.2698 5.3353L18.4673 5.53274M22 2L18.4673 5.53274M2 22L3.5 20.5M8.41044 15.5896V15.5896C8.41044 15.2663 8.38953 14.9406 8.29062 14.6328C7.90161 13.4224 6.94805 12.4737 5.73024 12.121L5.43928 12.0367C5.13684 11.9492 4.82403 11.9047 4.50972 11.9047C3.12366 11.9047 2.00003 13.0544 2.00004 14.4727L2.00004 18.4321C2.00003 19.2803 2.40193 20.0324 3.02151 20.5L3.5 20.5M8.41044 15.5896L3.5 20.5M8.41044 15.5896L18.4673 5.53274" stroke="currentColor" stroke-width="1.5" stroke-linecap="round" />
</svg>
