<svg width="24" height="24" viewBox="0 0 24 24" fill="none" xmlns="http://www.w3.org/2000/svg">
<g clip-path="url(#clip0_7_6676)">
<path d="M4.03 15.39C3.5 14.25 3.22 13.01 3.22 11.76C3.22 10.45 3.51 9.16 4.08 7.98C4.65 6.8 5.47001 5.75999 6.49001 4.93999C7.51001 4.11999 8.7 3.53998 9.98 3.23998C11.26 2.93998 12.58 2.93 13.87 3.2C15.15 3.48 16.36 4.03998 17.39 4.83998C18.43 5.63998 19.27 6.66998 19.86 7.83998C20.45 9.00998 20.76 10.3 20.79 11.6C20.81 12.91 20.54 14.2 20 15.39" stroke="black" stroke-width="1.5" stroke-miterlimit="10" stroke-linecap="round"/>
<path d="M16.12 17.91C15.55 18.89 15.89 20.15 16.88 20.72C17.87 21.29 19.13 20.95 19.7 19.97L20.73 18.19C21.3 17.21 20.96 15.95 19.97 15.38C18.98 14.81 17.72 15.15 17.15 16.13L16.12 17.91Z" stroke="black" stroke-width="1.5" stroke-miterlimit="10" stroke-linecap="round"/>
<path d="M6.85001 16.13C6.28001 15.15 5.02 14.81 4.03 15.38C3.04 15.95 2.70001 17.21 3.27001 18.19L4.3 19.97C4.87 20.95 6.13 21.29 7.12 20.72C8.11 20.15 8.45001 18.89 7.88001 17.91L6.85001 16.13Z" stroke="black" stroke-width="1.5" stroke-miterlimit="10" stroke-linecap="round"/>
</g>
<defs>
<clipPath id="clip0_7_6676">
<rect width="24" height="24" fill="white"/>
</clipPath>
</defs>
</svg>
