<svg width="24" height="24" viewBox="0 0 24 24" fill="none" xmlns="http://www.w3.org/2000/svg">
<g clip-path="url(#clip0_7_6768)">
<path d="M4.87 5C5.81 4.07 7.07999 3.53001 8.39999 3.51001C9.72999 3.49001 11.01 3.97 11.98 4.87C12.93 3.99 14.18 3.51 15.47 3.5C16.22 3.53 16.97 3.71003 17.65 4.03003C18.34 4.35003 18.96 4.79999 19.47 5.35999C19.99 5.91999 20.38 6.57003 20.64 7.28003C20.9 7.99003 21.02 8.75001 20.99 9.51001C20.99 10.36 20.83 11.21 20.5 11.99C20.17 12.77 19.68 13.48 19.06 14.07L18.93 14.19L11.93 20.51L10.28 19.01" stroke="black" stroke-width="1.5" stroke-linecap="round" stroke-linejoin="round"/>
<path d="M14.97 12H12.98L9.98999 9L5.98999 15L3 11.86" stroke="black" stroke-width="1.5" stroke-linecap="round" stroke-linejoin="round"/>
</g>
<defs>
<clipPath id="clip0_7_6768">
<rect width="24" height="24" fill="white"/>
</clipPath>
</defs>
</svg>
