<svg width="24" height="24" viewBox="0 0 24 24" fill="none" xmlns="http://www.w3.org/2000/svg">
<g clip-path="url(#clip0_7_6795)">
<path d="M15.01 13.8L16.28 14.56C16.49 14.71 16.67 14.9 16.79 15.12C16.91 15.34 16.99 15.59 17.01 15.85V19.51C17.01 19.91 16.85 20.29 16.57 20.57C16.29 20.85 15.91 21.01 15.51 21.01H8.53001C8.13001 21.01 7.75002 20.85 7.47002 20.57C7.19002 20.29 7.03001 19.91 7.03001 19.51V15.85C7.05001 15.59 7.12002 15.35 7.25002 15.12C7.37002 14.9 7.55001 14.71 7.76001 14.56L16.27 9.42999C16.48 9.28999 16.66 9.1 16.78 8.88C16.91 8.66 16.98 8.40997 17 8.15997V4.5C17 4.1 16.84 3.72 16.56 3.44C16.28 3.16 15.9 3 15.5 3H8.52002C8.12002 3 7.74002 3.16 7.46002 3.44C7.18002 3.72 7.02002 4.1 7.02002 4.5V8.15997C7.04002 8.40997 7.11002 8.66 7.24002 8.88C7.36002 9.1 7.54002 9.28999 7.75002 9.42999L9.02002 10.2" stroke="black" stroke-width="1.5" stroke-miterlimit="10" stroke-linecap="round"/>
</g>
<defs>
<clipPath id="clip0_7_6795">
<rect width="24" height="24" fill="white"/>
</clipPath>
</defs>
</svg>
