<svg width="24" height="24" viewBox="0 0 24 24" fill="none" xmlns="http://www.w3.org/2000/svg">
<g clip-path="url(#clip0_7_6660)">
<path d="M19.11 20.6C17.14 19.71 15.31 18.53 13.68 17.1L13.42 16.9C11.37 15.26 9.57999 13.85 7.73999 13.98C5.95999 14.27 4.31 15.1 3 16.35" stroke="black" stroke-width="1.5" stroke-miterlimit="10" stroke-linecap="round"/>
<path d="M13.67 17.1C14.65 16 15.97 15.25 17.42 14.97C18.56 14.89 19.68 15.73 20.95 16.74" stroke="black" stroke-width="1.5" stroke-miterlimit="10" stroke-linecap="round"/>
<path d="M14.97 10.55C16.08 10.55 16.97 9.64999 16.97 8.54999C16.97 7.44999 16.07 6.54999 14.97 6.54999C13.87 6.54999 12.97 7.44999 12.97 8.54999C12.97 9.64999 13.87 10.55 14.97 10.55Z" stroke="black" stroke-width="1.5" stroke-miterlimit="10" stroke-linecap="round"/>
<path d="M17.77 3H6.22998C4.44998 3 3 4.45001 3 6.23001V17.77C3 19.55 4.44998 21 6.22998 21H17.77C19.55 21 21 19.55 21 17.77V6.23001C21 4.45001 19.55 3 17.77 3Z" stroke="black" stroke-width="1.5" stroke-miterlimit="10" stroke-linecap="round"/>
</g>
<defs>
<clipPath id="clip0_7_6660">
<rect width="24" height="24" fill="white"/>
</clipPath>
</defs>
</svg>
