<svg width="24" height="24" viewBox="0 0 24 24" fill="none" xmlns="http://www.w3.org/2000/svg">
<g clip-path="url(#clip0_7_6659)">
<path d="M13.01 15.64L12.32 15.93C12.22 15.97 12.11 15.99 12.01 15.99C11.9 15.99 11.79 15.97 11.69 15.93L11 15.64C10.31 15.35 9.7 14.87 9.27 14.25C8.84 13.63 8.57 12.91 8.52 12.16L8.37 10.09C8.37 9.92 8.4 9.74999 8.48 9.60999C8.57 9.46999 8.70001 9.35001 8.85001 9.29001L11.54 8.10999C11.84 7.98999 12.18 7.98999 12.49 8.10999L15.12 9.28C15.27 9.35 15.4 9.46999 15.49 9.60999C15.58 9.75999 15.61 9.92 15.6 10.09L15.45 12.16C15.4 12.91 15.15 13.63 14.72 14.24C14.29 14.85 13.7 15.34 13.01 15.64V15.64Z" stroke="black" stroke-width="1.5" stroke-miterlimit="10" stroke-linecap="round"/>
<path d="M20.78 10C20.92 10.66 21 11.33 21 12C21 14.39 20.05 16.68 18.37 18.36C16.68 20.05 14.39 21 12 21C10.3 21 8.64001 20.52 7.21001 19.61" stroke="black" stroke-width="1.5" stroke-miterlimit="10" stroke-linecap="round"/>
<path d="M3.23 14.01C3.08 13.35 3 12.68 3 12C3 9.61 3.95 7.33001 5.64 5.64001C7.33 3.95001 9.61 3 12 3C13.68 3 15.32 3.46999 16.74 4.35999" stroke="black" stroke-width="1.5" stroke-miterlimit="10" stroke-linecap="round"/>
<path d="M18.37 7.63C19.48 7.63 20.37 6.74 20.37 5.63C20.37 4.52 19.48 3.63 18.37 3.63C17.26 3.63 16.37 4.52 16.37 5.63C16.37 6.74 17.26 7.63 18.37 7.63Z" stroke="black" stroke-width="1.5" stroke-miterlimit="10" stroke-linecap="round"/>
<path d="M5.63 20.37C6.74 20.37 7.63 19.48 7.63 18.37C7.63 17.26 6.74 16.37 5.63 16.37C4.52 16.37 3.63 17.26 3.63 18.37C3.63 19.48 4.52 20.37 5.63 20.37Z" stroke="black" stroke-width="1.5" stroke-miterlimit="10" stroke-linecap="round"/>
</g>
<defs>
<clipPath id="clip0_7_6659">
<rect width="24" height="24" fill="white"/>
</clipPath>
</defs>
</svg>
