<svg width="24" height="24" viewBox="0 0 24 24" fill="none" xmlns="http://www.w3.org/2000/svg">
<g clip-path="url(#clip0_7_6782)">
<path d="M3 10.57C3 10.57 3.77 10.75 4.98 10.94C7.3 11.34 9.65 11.55 12 11.58C15.02 11.53 18.04 11.19 21 10.57" stroke="black" stroke-width="1.5" stroke-miterlimit="10" stroke-linecap="round"/>
<path d="M19 10.81V7.05999C19.02 6.61999 18.93 6.17998 18.76 5.76998C18.58 5.35998 18.32 4.99998 17.99 4.70998C17.66 4.41998 17.27 4.21 16.84 4.1C16.42 3.99 15.98 3.96998 15.55 4.04998C14.38 4.25998 13.4 4.45 12.01 4.45C10.62 4.45 9.64 4.25998 8.47 4.04998C8.04 3.96998 7.6 3.98 7.18 4.1C6.76 4.21 6.37 4.41998 6.03 4.70998C5.7 4.99998 5.44 5.35998 5.26 5.76998C5.08 6.17998 5 6.61999 5.02 7.05999V10.92" stroke="black" stroke-width="1.5" stroke-miterlimit="10" stroke-linecap="round"/>
<path d="M7.36 20C8.82 20 10 18.8 10 17.32C10 15.84 8.82 14.64 7.36 14.64C5.9 14.64 4.72 15.84 4.72 17.32C4.72 18.8 5.9 20 7.36 20V20Z" stroke="black" stroke-width="1.5" stroke-miterlimit="10" stroke-linecap="round"/>
<path d="M16.63 20C18.09 20 19.27 18.8 19.27 17.32C19.27 15.84 18.09 14.64 16.63 14.64C15.17 14.64 13.99 15.84 13.99 17.32C13.99 18.8 15.17 20 16.63 20Z" stroke="black" stroke-width="1.5" stroke-miterlimit="10" stroke-linecap="round"/>
<path d="M10 17.32H14" stroke="black" stroke-width="1.5" stroke-miterlimit="10" stroke-linecap="round"/>
</g>
<defs>
<clipPath id="clip0_7_6782">
<rect width="24" height="24" fill="white"/>
</clipPath>
</defs>
</svg>
