<svg width="24" height="24" viewBox="0 0 24 24" fill="none" xmlns="http://www.w3.org/2000/svg">
	<path d="M12 21C16.97 21 21 16.97 21 12C21 7.03 16.97 3 12 3C7.03 3 3 7.03 3 12C3 16.97 7.03 21 12 21Z" stroke="currentColor" stroke-width="1.5" stroke-miterlimit="10" />
	<path d="M12 21C14.21 21 16 16.97 16 12C16 7.03 14.21 3 12 3C9.79 3 8 7.03 8 12C8 16.97 9.79 21 12 21Z" stroke="currentColor" stroke-width="1.5" stroke-miterlimit="10" />
	<path d="M3 11.58C8.95 12.68 15.05 12.68 21 11.58" stroke="currentColor" stroke-width="1.5" stroke-miterlimit="10" />
</svg>
