<svg width="24" height="24" viewBox="0 0 24 24" fill="none" xmlns="http://www.w3.org/2000/svg">
<g clip-path="url(#clip0_7_6641)">
<path d="M11.51 12.51L4.3 8.80001C3.25 8.26001 3.25 7.37002 4.3 6.81002L11.51 3.1C11.82 2.97 12.17 2.97 12.48 3.1L19.69 6.81002C20.74 7.35002 20.74 8.24001 19.69 8.80001L12.48 12.51C12.17 12.64 11.82 12.64 11.51 12.51Z" stroke="black" stroke-width="1.5" stroke-miterlimit="10" stroke-linecap="round"/>
<path d="M20.5 12.9L12.48 17.02C12.32 17.1 12.16 17.14 11.99 17.14C11.82 17.14 11.66 17.1 11.5 17.02L3.49001 12.9" stroke="black" stroke-width="1.5" stroke-miterlimit="10" stroke-linecap="round"/>
<path d="M20.5 16.77L12.48 20.89C12.32 20.96 12.16 21 11.99 21C11.82 21 11.66 20.96 11.5 20.89L3.49001 16.77" stroke="black" stroke-width="1.5" stroke-miterlimit="10" stroke-linecap="round"/>
</g>
<defs>
<clipPath id="clip0_7_6641">
<rect width="24" height="24" fill="white"/>
</clipPath>
</defs>
</svg>
