<svg width="24" height="24" viewBox="0 0 24 24" fill="none" xmlns="http://www.w3.org/2000/svg">
<g clip-path="url(#clip0_7_6841)">
<path d="M7.76001 9.75V7.24C7.76001 4.9 9.66 3 12 3C14.34 3 16.24 4.9 16.24 7.24V9.75" stroke="black" stroke-width="1.5" stroke-linejoin="round"/>
<path d="M12 15.6V17.4" stroke="black" stroke-width="1.5" stroke-linecap="round" stroke-linejoin="round"/>
<path d="M12 15.59C12.6186 15.59 13.12 15.0885 13.12 14.47C13.12 13.8514 12.6186 13.35 12 13.35C11.3814 13.35 10.88 13.8514 10.88 14.47C10.88 15.0885 11.3814 15.59 12 15.59Z" stroke="black" stroke-width="1.5" stroke-linecap="round" stroke-linejoin="round"/>
<path d="M16 9.29999H8C5.79086 9.29999 4 11.0908 4 13.3V17C4 19.2091 5.79086 21 8 21H16C18.2091 21 20 19.2091 20 17V13.3C20 11.0908 18.2091 9.29999 16 9.29999Z" stroke="black" stroke-width="1.5" stroke-linejoin="round"/>
</g>
<defs>
<clipPath id="clip0_7_6841">
<rect width="24" height="24" fill="white"/>
</clipPath>
</defs>
</svg>
