<svg width="24" height="24" viewBox="0 0 24 24" fill="none" xmlns="http://www.w3.org/2000/svg">
<g clip-path="url(#clip0_7_6670)">
<path d="M13.88 17.5H6.76999C5.73999 17.5 4.74999 17.09 4.01999 16.36C3.28999 15.63 2.88 14.64 2.88 13.61V9.5C2.88 8.7 3.20001 7.94 3.76001 7.38C4.32001 6.82 5.08 6.49999 5.88 6.48999" stroke="black" stroke-width="1.5" stroke-linecap="round" stroke-linejoin="round"/>
<path d="M10.88 14.5L13.88 17.5L10.88 20.5" stroke="black" stroke-width="1.5" stroke-linecap="round" stroke-linejoin="round"/>
<path d="M9.88 6.48999H17.48C18.38 6.48999 19.24 6.85999 19.88 7.48999C20.52 8.12999 20.88 8.99001 20.88 9.89001V14.48C20.88 15.28 20.56 16.04 20 16.6C19.44 17.16 18.68 17.48 17.88 17.49" stroke="black" stroke-width="1.5" stroke-linecap="round" stroke-linejoin="round"/>
<path d="M12.87 9.5L9.87 6.5L12.87 3.48999" stroke="black" stroke-width="1.5" stroke-linecap="round" stroke-linejoin="round"/>
</g>
<defs>
<clipPath id="clip0_7_6670">
<rect width="24" height="24" fill="white"/>
</clipPath>
</defs>
</svg>
