<svg width="24" height="24" viewBox="0 0 24 24" fill="none" xmlns="http://www.w3.org/2000/svg">
<g clip-path="url(#clip0_7_6834)">
<path d="M11.93 3C16.94 3 21 7.03 21 12C21 16.97 16.94 21 11.93 21" stroke="black" stroke-width="1.5" stroke-linecap="round" stroke-linejoin="round"/>
<path d="M8.82996 20.45C7.83996 20.09 6.90998 19.57 6.09998 18.89" stroke="black" stroke-width="1.5" stroke-linecap="round" stroke-linejoin="round"/>
<path d="M6.09998 5.10999C6.90998 4.43999 7.83996 3.90999 8.82996 3.54999" stroke="black" stroke-width="1.5" stroke-linecap="round" stroke-linejoin="round"/>
<path d="M3 10.44C3.18 9.41 3.54999 8.41 4.07999 7.5" stroke="black" stroke-width="1.5" stroke-linecap="round" stroke-linejoin="round"/>
<path d="M3 13.56C3.18 14.59 3.54999 15.59 4.07999 16.5" stroke="black" stroke-width="1.5" stroke-linecap="round" stroke-linejoin="round"/>
<path d="M12 15.99C10.81 15.58 7.89001 13.81 7.89001 10.93C7.89001 9.65999 8.90999 8.63 10.18 8.63C10.93 8.63 11.59 8.98999 12.01 9.54999C12.43 8.98999 13.09 8.63 13.84 8.63C15.1 8.63 16.13 9.65999 16.13 10.93C16.13 13.81 13.21 15.59 12.02 15.99H12Z" stroke="black" stroke-width="1.5" stroke-linecap="round" stroke-linejoin="round"/>
</g>
<defs>
<clipPath id="clip0_7_6834">
<rect width="24" height="24" fill="white"/>
</clipPath>
</defs>
</svg>
