<svg width="24" height="24" viewBox="0 0 24 24" fill="none" xmlns="http://www.w3.org/2000/svg">
<g clip-path="url(#clip0_7_6739)">
<path d="M12.9 11.46C12.9 11.89 12.78 12.28 12.56 12.62C12.54 12.65 12.52 12.68 12.5 12.71C12.11 13.26 11.47 13.63 10.74 13.63C9.55001 13.63 8.58 12.66 8.58 11.47C8.58 10.28 9.55001 9.31 10.74 9.31C11.47 9.31 12.12 9.67 12.5 10.23C12.52 10.26 12.54 10.29 12.56 10.32C12.78 10.66 12.9 11.05 12.9 11.48V11.46Z" stroke="black" stroke-width="1.5" stroke-linecap="round" stroke-linejoin="round"/>
<path d="M15.24 11.46C15.24 12.34 14.53 13.05 13.65 13.05C13.23 13.05 12.84 12.89 12.56 12.61C12.78 12.27 12.9 11.88 12.9 11.45C12.9 11.02 12.78 10.63 12.56 10.29C12.84 10.02 13.23 9.85001 13.65 9.85001C14.53 9.85001 15.24 10.56 15.24 11.44V11.46Z" stroke="black" stroke-width="1.5" stroke-linecap="round" stroke-linejoin="round"/>
<path d="M8.39999 17.41C9.44999 15.64 12 15.63 13.07 17.39V17.41" stroke="black" stroke-width="1.5" stroke-linecap="round" stroke-linejoin="round"/>
<path d="M15.6 17.05C15.43 16.47 15.03 16.01 14.52 15.81L15 15.33" stroke="black" stroke-width="1.5" stroke-linecap="round" stroke-linejoin="round"/>
<path d="M21 10.2V17.41C21 19.39 19.38 21.01 17.4 21.01H6.60001C4.62001 21.01 3 19.39 3 17.41V10.2C3 8.22 4.62001 6.60001 6.60001 6.60001H8.05C8.29 6.60001 8.52 6.51 8.69 6.34L12.01 3.02L15.33 6.34C15.5 6.51 15.73 6.60001 15.97 6.60001H17.42C19.4 6.60001 21.02 8.22 21.02 10.2H21Z" stroke="black" stroke-width="1.5" stroke-linecap="round" stroke-linejoin="round"/>
</g>
<defs>
<clipPath id="clip0_7_6739">
<rect width="24" height="24" fill="white"/>
</clipPath>
</defs>
</svg>
