<svg width="24" height="24" viewBox="0 0 24 24" fill="none" xmlns="http://www.w3.org/2000/svg">
<g clip-path="url(#clip0_7_6717)">
<path d="M20.88 13.53C20.27 17.27 17.48 20.13 13.77 20.83C11.73 21.22 9.80002 20.91 8.13002 20.13C7.85002 19.99 7.41 19.94 7.11 20C6.49 20.15 5.42999 20.41 4.53999 20.61C3.67999 20.82 3.15001 20.29 3.37001 19.44L3.97999 16.88C4.04999 16.58 3.97999 16.13 3.84999 15.85C3.08999 14.26 2.78999 12.41 3.09999 10.47C3.69999 6.75001 6.72002 3.72999 10.45 3.10999C16.61 2.11999 21.86 7.36 20.85 13.52L20.88 13.53Z" stroke="black" stroke-width="1.5" stroke-linecap="round" stroke-linejoin="round"/>
<path d="M10.65 12H8.84998" stroke="black" stroke-width="1.5" stroke-linecap="round" stroke-linejoin="round"/>
<path d="M15.15 12H13.35" stroke="black" stroke-width="1.5" stroke-linecap="round" stroke-linejoin="round"/>
</g>
<defs>
<clipPath id="clip0_7_6717">
<rect width="24" height="24" fill="white"/>
</clipPath>
</defs>
</svg>
