<svg width="24" height="24" viewBox="0 0 24 24" fill="none" xmlns="http://www.w3.org/2000/svg">
<g clip-path="url(#clip0_7_6823)">
<path d="M17 5H7C4.79086 5 3 6.79086 3 9V15C3 17.2091 4.79086 19 7 19H17C19.2091 19 21 17.2091 21 15V9C21 6.79086 19.2091 5 17 5Z" stroke="black" stroke-width="1.5" stroke-linecap="round" stroke-linejoin="round"/>
<path d="M12 13.75C12.9941 13.75 13.8 12.9665 13.8 12C13.8 11.0335 12.9941 10.25 12 10.25C11.0059 10.25 10.2 11.0335 10.2 12C10.2 12.9665 11.0059 13.75 12 13.75Z" stroke="black" stroke-width="1.5" stroke-linecap="round" stroke-linejoin="round"/>
<path d="M17.4 8.06H14.77" stroke="black" stroke-width="1.5" stroke-linecap="round" stroke-linejoin="round"/>
<path d="M9.29999 15.94H6.66998" stroke="black" stroke-width="1.5" stroke-linecap="round" stroke-linejoin="round"/>
</g>
<defs>
<clipPath id="clip0_7_6823">
<rect width="24" height="24" fill="white"/>
</clipPath>
</defs>
</svg>
