<svg width="24" height="24" viewBox="0 0 24 24" fill="none" xmlns="http://www.w3.org/2000/svg">
<g clip-path="url(#clip0_7_6638)">
<path d="M18.14 16.27C17.15 16.09 16.25 15.62 15.53 14.9C14.82 14.19 14.34 13.27 14.15 12.28C14.02 11.57 14.05 10.83 14.23 10.13C14.26 10.03 14.26 9.93002 14.23 9.83002C14.19 9.73002 14.14 9.64001 14.06 9.57001C13.99 9.50001 13.89 9.46 13.79 9.44C13.69 9.42 13.58 9.43997 13.49 9.46997C12.3 9.88997 11.28 10.72 10.61 11.8C9.93999 12.88 9.64999 14.17 9.78999 15.44C9.92999 16.71 10.5 17.9 11.39 18.8C12.29 19.71 13.45 20.28 14.71 20.42C15.99 20.63 17.3 20.4 18.44 19.76C19.58 19.12 20.46 18.11 20.96 16.9C21 16.8 21.01 16.7 20.99 16.6C20.97 16.5 20.92 16.4 20.86 16.33C20.79 16.25 20.7 16.2 20.6 16.17C20.51 16.14 20.39 16.15 20.3 16.17C19.59 16.35 18.85 16.38 18.14 16.25V16.27Z" stroke="black" stroke-width="1.5" stroke-miterlimit="10"/>
<path d="M6.94 15.4H6.51999C5.66999 15.35 4.87 15.01 4.23 14.44C3.61 13.87 3.19 13.1 3.05 12.25C2.91 11.41 3.05 10.54 3.47 9.78998C3.89 9.03998 4.54 8.46001 5.33 8.14001" stroke="black" stroke-width="1.5" stroke-miterlimit="10" stroke-linecap="round"/>
<path d="M8.89999 8.78003C8.23999 8.24003 7.40999 7.94 6.54999 7.94C6.13999 7.94 5.73999 8.01002 5.35999 8.15002C5.65999 6.83002 6.38999 5.65 7.42999 4.81C8.46999 3.97 9.76999 3.51001 11.11 3.51001C12.45 3.51001 13.75 3.97 14.79 4.81C15.83 5.65 16.56 6.83002 16.86 8.15002" stroke="black" stroke-width="1.5" stroke-miterlimit="10" stroke-linecap="round"/>
</g>
<defs>
<clipPath id="clip0_7_6638">
<rect width="24" height="24" fill="white"/>
</clipPath>
</defs>
</svg>
