<svg width="24" height="24" viewBox="0 0 24 24" fill="none" xmlns="http://www.w3.org/2000/svg">
<g clip-path="url(#clip0_7_6802)">
<path d="M14.04 17.67H6.01001C5.45001 17.67 4.96 17.45 4.59 17.08C4.23 16.71 4 16.21 4 15.66C4 15.11 4.23 14.55 4.62 14.16L5.16 13.62C5.67 13.12 5.95001 12.42 5.95001 11.71V9.76999" stroke="black" stroke-width="1.5" stroke-linecap="round" stroke-linejoin="round"/>
<path d="M10.27 21H13.41" stroke="black" stroke-width="1.5" stroke-linecap="round" stroke-linejoin="round"/>
<path d="M2.98001 3.03L20.98 21" stroke="black" stroke-width="1.5" stroke-linecap="round" stroke-linejoin="round"/>
<path d="M19.69 15.67C19.69 16.78 18.78 17.67 17.67 17.67H17.64L6.45001 6.5C6.75001 5.83 7.15999 5.23 7.67999 4.72C8.73999 3.66 10.21 3 11.84 3C14.15 3 16.32 4.34999 17.29 6.60999C17.61 7.36999 17.73 8.19001 17.73 9.01001V11.71C17.73 12.43 18.02 13.11 18.52 13.62L19.06 14.17C19.47 14.57 19.69 15.11 19.69 15.67V15.67Z" stroke="black" stroke-width="1.5" stroke-linecap="round" stroke-linejoin="round"/>
</g>
<defs>
<clipPath id="clip0_7_6802">
<rect width="24" height="24" fill="white"/>
</clipPath>
</defs>
</svg>
