<svg width="24" height="24" viewBox="0 0 24 24" fill="none" xmlns="http://www.w3.org/2000/svg">
<g clip-path="url(#clip0_7_6715)">
<path d="M17.77 17.67C18.9 17.67 19.82 16.77 19.83 15.66C19.83 15.1 19.6 14.56 19.19 14.16L18.64 13.62C18.12 13.11 17.83 12.43 17.83 11.71V8.99999C17.83 8.17999 17.7 7.36 17.37 6.6C16.39 4.34 14.17 2.97998 11.82 2.98998C8.51002 2.98998 5.83002 5.61998 5.83002 8.85998V11.7C5.83002 12.42 5.54002 13.1 5.02002 13.61L4.47002 14.15C4.06002 14.55 3.83002 15.09 3.83002 15.65C3.83002 16.76 4.75001 17.66 5.89001 17.66H17.78L17.77 17.67Z" stroke="black" stroke-width="1.5" stroke-linecap="round" stroke-linejoin="round"/>
<path d="M10.26 21H13.39" stroke="black" stroke-width="1.5" stroke-linecap="round" stroke-linejoin="round"/>
</g>
<defs>
<clipPath id="clip0_7_6715">
<rect width="24" height="24" fill="white"/>
</clipPath>
</defs>
</svg>
