<svg width="24" height="24" viewBox="0 0 24 24" fill="none" xmlns="http://www.w3.org/2000/svg">
<g clip-path="url(#clip0_7_6685)">
<path d="M12 21C16.9706 21 21 16.9706 21 12C21 7.02944 16.9706 3 12 3C7.02944 3 3 7.02944 3 12C3 16.9706 7.02944 21 12 21Z" stroke="black" stroke-width="1.5" stroke-linecap="round" stroke-linejoin="round"/>
<path d="M13.15 8.85001H10.85C9.74544 8.85001 8.85001 9.74544 8.85001 10.85V13.15C8.85001 14.2546 9.74544 15.15 10.85 15.15H13.15C14.2546 15.15 15.15 14.2546 15.15 13.15V10.85C15.15 9.74544 14.2546 8.85001 13.15 8.85001Z" stroke="black" stroke-width="1.5" stroke-linecap="round" stroke-linejoin="round"/>
</g>
<defs>
<clipPath id="clip0_7_6685">
<rect width="24" height="24" fill="white"/>
</clipPath>
</defs>
</svg>
