<svg width="24" height="24" viewBox="0 0 24 24" fill="none" xmlns="http://www.w3.org/2000/svg">
	<path d="M14.5858 2.58579C14.2107 2.21071 13.702 2 13.1716 2H6C5.46957 2 4.96086 2.21071 4.58579 2.58579C4.21071 2.96086 4 3.46957 4 4V20C4 20.5304 4.21071 21.0391 4.58579 21.4142C4.96086 21.7893 5.46957 22 6 22H18C18.5304 22 19.0391 21.7893 19.4142 21.4142C19.7893 21.0391 20 20.5304 20 20V8.82843C20 8.29799 19.7893 7.78929 19.4142 7.41421L14.5858 2.58579Z" stroke="currentColor" stroke-width="1.5" stroke-linecap="round" stroke-linejoin="round" />
	<path d="M14 2V8H20" stroke="currentColor" stroke-width="1.5" stroke-linecap="round" stroke-linejoin="round" />
	<rect x="2.90674" y="12.0072" width="11.0684" height="6.07197" rx="1.5" fill="#FDFDFD" />
	<path d="M6.13735 13.5525C6.02156 13.5214 5.77598 13.5074 5.40045 13.5074H4.40674V16.5792H5.02784V15.4216H5.43154C5.71099 15.4216 5.92564 15.4074 6.07533 15.3765C6.18542 15.3539 6.29274 15.3031 6.39711 15.2298C6.50149 15.1564 6.58912 15.0547 6.65686 14.9277C6.72461 14.7979 6.75848 14.6398 6.75848 14.4535C6.75848 14.2079 6.6992 14.0102 6.58065 13.855C6.4619 13.6993 6.31518 13.5976 6.13735 13.5525ZM6.04972 14.6987C6.00167 14.7664 5.93963 14.8172 5.85495 14.8483C5.77303 14.8794 5.60938 14.8964 5.36381 14.8964H5.02509L5.02489 14.0267H5.32422C5.54735 14.0267 5.69681 14.0324 5.77027 14.0464C5.87189 14.0634 5.95381 14.1114 6.0188 14.1819C6.08379 14.2554 6.11765 14.3456 6.11765 14.4586C6.12041 14.5492 6.09501 14.6309 6.04972 14.6987Z" fill="currentColor" />
	<path d="M9.44526 13.8489C9.31548 13.7134 9.16286 13.6202 8.98227 13.5665C8.84954 13.5269 8.65478 13.5072 8.39777 13.5072H7.26562V16.5789H8.43165C8.66029 16.5789 8.84383 16.5563 8.9793 16.5139C9.16284 16.4547 9.30679 16.3727 9.41412 16.2684C9.55532 16.1301 9.6654 15.9493 9.74161 15.7262C9.80365 15.5427 9.83476 15.3253 9.83476 15.074C9.83476 14.7861 9.80089 14.5433 9.73315 14.3485C9.67112 14.1482 9.57247 13.9844 9.44526 13.8489ZM9.13469 15.6049C9.09235 15.7431 9.03879 15.842 8.97105 15.9013C8.90606 15.9606 8.82138 16.0029 8.71976 16.0283C8.64355 16.048 8.51929 16.0565 8.34422 16.0565H7.88124V14.0238H8.16068C8.41472 14.0238 8.58408 14.0322 8.66875 14.0519C8.78455 14.0773 8.88045 14.1254 8.95666 14.1959C9.03287 14.2664 9.08939 14.3652 9.13174 14.4923C9.17408 14.6193 9.19377 14.8028 9.19377 15.0399C9.19692 15.2804 9.17704 15.4694 9.13469 15.6049Z" fill="currentColor" />
	<path d="M10.3691 16.5762H10.9902V15.272H12.2721V14.7525H10.9902V14.0268H12.4753V13.5074H10.3691V16.5762Z" fill="currentColor" />
	<rect x="2.90674" y="12.0072" width="11.0684" height="6.07197" rx="1.5" stroke="currentColor" />
</svg>
