<svg width="24" height="24" viewBox="0 0 24 24" fill="none" xmlns="http://www.w3.org/2000/svg">
<g clip-path="url(#clip0_7_6719)">
<path d="M10.46 15.7C11.66 15.7 12.63 14.73 12.63 13.53C12.63 12.33 11.66 11.36 10.46 11.36C9.25999 11.36 8.29001 12.33 8.29001 13.53C8.29001 14.73 9.25999 15.7 10.46 15.7Z" stroke="black" stroke-width="1.5" stroke-miterlimit="10" stroke-linecap="round"/>
<path d="M20.56 8.59L18.77 10.38C18.49 10.68 18.3 11.06 18.22 11.46L17.14 17.67C17.05 18.11 16.83 18.5 16.5 18.82C16.19 19.13 15.78 19.35 15.35 19.43L5.51 20.94C5.17 21.02 4.82001 21.02 4.48001 20.92C4.15001 20.83 3.82999 20.65 3.58999 20.4C3.33999 20.15 3.15999 19.84 3.05999 19.51C2.96999 19.17 2.96999 18.82 3.05999 18.48L4.57 8.65C4.66 8.21 4.87 7.81 5.19 7.49C5.5 7.17 5.89998 6.95001 6.32998 6.85001L12.54 5.78C12.94 5.69 13.31 5.50002 13.61 5.23002L15.41 3.43C15.81 3.11 16.31 2.96002 16.82 3.01002C17.33 3.06002 17.79 3.30001 18.12 3.69001L20.31 5.88001C20.7 6.21001 20.95 6.67 20.99 7.18C21.05 7.69 20.89 8.19 20.57 8.59H20.56Z" stroke="black" stroke-width="1.5" stroke-miterlimit="10" stroke-linecap="round"/>
<path d="M13.16 5.67001L18.32 10.83" stroke="black" stroke-width="1.5" stroke-miterlimit="10" stroke-linecap="round"/>
<path d="M8.92999 15.07L3.60001 20.41" stroke="black" stroke-width="1.5" stroke-miterlimit="10" stroke-linecap="round"/>
</g>
<defs>
<clipPath id="clip0_7_6719">
<rect width="24" height="24" fill="white"/>
</clipPath>
</defs>
</svg>
