<svg width="24" height="24" viewBox="0 0 24 24" fill="none" xmlns="http://www.w3.org/2000/svg">
<g clip-path="url(#clip0_7_6665)">
<path d="M11.99 8.37C13.5 8.37 14.73 7.17 14.73 5.69C14.73 4.21 13.5 3.01001 11.99 3.01001C10.48 3.01001 9.25 4.21 9.25 5.69C9.25 7.17 10.48 8.37 11.99 8.37Z" stroke="black" stroke-width="1.5" stroke-miterlimit="10" stroke-linecap="round"/>
<path d="M8.92999 17.96L7.57 17.29C7.37 17.2 7.20998 17.05 7.10998 16.86C7.00998 16.67 6.97998 16.45 7.01998 16.24L7.55999 13.07C7.65999 12.49 7.96001 11.96 8.42001 11.57C8.88001 11.19 9.46 10.98 10.07 10.98H13.93C14.53 10.98 15.12 11.19 15.58 11.57C16.04 11.95 16.35 12.48 16.45 13.07L16.99 16.24C17.02 16.45 16.99 16.66 16.89 16.85C16.79 17.04 16.63 17.19 16.44 17.29L15.07 17.96" stroke="black" stroke-width="1.5" stroke-miterlimit="10" stroke-linecap="round"/>
<path d="M9.44 15.96L9.85001 20.05C9.86001 20.3 9.97 20.55 10.16 20.72C10.35 20.9 10.6 20.99 10.86 20.99H13.08C13.33 20.98 13.57 20.88 13.75 20.7C13.93 20.53 14.03 20.29 14.05 20.04L14.46 15.95" stroke="black" stroke-width="1.5" stroke-miterlimit="10" stroke-linecap="round"/>
</g>
<defs>
<clipPath id="clip0_7_6665">
<rect width="24" height="24" fill="white"/>
</clipPath>
</defs>
</svg>
