<svg width="24" height="24" viewBox="0 0 24 24" fill="none" xmlns="http://www.w3.org/2000/svg">
<g clip-path="url(#clip0_7_6669)">
<path d="M8.97 8.37C10.48 8.37 11.7 7.17 11.7 5.69C11.7 4.21 10.48 3.01001 8.97 3.01001C7.46 3.01001 6.23999 4.21 6.23999 5.69C6.23999 7.17 7.46 8.37 8.97 8.37Z" stroke="black" stroke-width="1.5" stroke-miterlimit="10" stroke-linecap="round"/>
<path d="M5.92001 17.97L4.55999 17.3C4.36999 17.2 4.20998 17.05 4.10998 16.86C4.00998 16.67 3.98 16.45 4.01 16.24L4.54998 13.07C4.64998 12.49 4.96001 11.96 5.42001 11.58C5.88001 11.2 6.45999 10.99 7.05999 10.99H10.9C11.5 10.99 12.08 11.2 12.54 11.58C13 11.96 13.3 12.49 13.4 13.07L13.94 16.24C13.99 16.45 13.96 16.67 13.86 16.86C13.76 17.05 13.6 17.21 13.4 17.29L12.05 17.96" stroke="black" stroke-width="1.5" stroke-miterlimit="10" stroke-linecap="round"/>
<path d="M6.42004 15.97L6.84003 20.05C6.85003 20.3 6.96004 20.53 7.13004 20.71C7.31004 20.88 7.54002 20.99 7.80002 21H10.02C10.27 20.99 10.51 20.89 10.69 20.71C10.87 20.54 10.97 20.3 10.98 20.05L11.39 15.97" stroke="black" stroke-width="1.5" stroke-miterlimit="10" stroke-linecap="round"/>
<path d="M15.04 3C15.76 3 16.46 3.28001 16.97 3.79001C17.48 4.29001 17.77 4.98 17.77 5.69C17.77 6.4 17.48 7.08 16.97 7.59C16.46 8.09 15.77 8.38 15.04 8.38" stroke="black" stroke-width="1.5" stroke-miterlimit="10" stroke-linecap="round"/>
<path d="M16.05 10.98H16.94C17.54 10.98 18.12 11.19 18.58 11.57C19.04 11.95 19.35 12.48 19.45 13.06L19.99 16.23C20.02 16.44 19.99 16.66 19.89 16.85C19.79 17.04 19.63 17.19 19.44 17.29L18.08 17.96" stroke="black" stroke-width="1.5" stroke-miterlimit="10" stroke-linecap="round"/>
<path d="M15.04 20.95H16.14C16.27 20.95 16.4 20.94 16.52 20.89C16.64 20.85 16.75 20.78 16.85 20.69C16.94 20.6 17.02 20.5 17.07 20.38C17.12 20.26 17.15 20.14 17.15 20.01L17.57 15.93" stroke="black" stroke-width="1.5" stroke-miterlimit="10" stroke-linecap="round"/>
</g>
<defs>
<clipPath id="clip0_7_6669">
<rect width="24" height="24" fill="white"/>
</clipPath>
</defs>
</svg>
