<svg width="24" height="24" viewBox="0 0 24 24" fill="none" xmlns="http://www.w3.org/2000/svg">
<g clip-path="url(#clip0_7_6746)">
<path d="M20.72 8.77001L17.3 12.36C17.07 12.6 16.9 12.9 16.82 13.22L15.75 17.2C15.35 18.68 13.49 19.18 12.39 18.1L5.83 11.57C4.75 10.49 5.23 8.65001 6.7 8.24001L10.7 7.12C11 7.03 11.28 6.88 11.52 6.67L15.2 3.28999C15.65 2.87999 16.35 2.90001 16.78 3.32001L20.68 7.2C21.12 7.63 21.13 8.33 20.71 8.78L20.72 8.77001Z" stroke="black" stroke-width="1.5" stroke-linecap="round" stroke-linejoin="round"/>
<path d="M3.02 20.98L9.16 14.87" stroke="black" stroke-width="1.5" stroke-linecap="round" stroke-linejoin="round"/>
<path d="M11.18 6.97998L14.1 9.89998" stroke="black" stroke-width="1.5" stroke-linecap="round" stroke-linejoin="round"/>
</g>
<defs>
<clipPath id="clip0_7_6746">
<rect width="24" height="24" fill="white"/>
</clipPath>
</defs>
</svg>
