<svg width="24" height="24" viewBox="0 0 24 24" fill="none" xmlns="http://www.w3.org/2000/svg">
	<mask id="path-1-inside-1_1420_16267" fill="white">
		<path fill-rule="evenodd" clip-rule="evenodd" d="M6.64417 6.69203C7.42919 6.69203 8.16591 6.99396 8.72146 7.54952L11.7287 10.5568C11.9461 10.7742 12.2963 10.7742 12.5137 10.5568L15.521 7.56159C16.0765 7.00604 16.8132 6.7041 17.5983 6.7041H17.9606L14.1442 2.88768C12.9606 1.70411 11.0282 1.70411 9.84465 2.88768L6.04031 6.69203H6.64417ZM17.5985 17.2957C16.8135 17.2957 16.0768 16.9938 15.5212 16.4382L12.5261 13.443C12.3208 13.2377 11.9464 13.2377 11.741 13.443L8.73381 16.4503C8.17825 17.0058 7.44153 17.3078 6.65651 17.3078H6.06472L9.86907 21.1121C11.0526 22.2957 12.985 22.2957 14.1686 21.1121L17.985 17.2957H17.5985ZM18.8056 7.54908L21.1123 9.85584C22.2959 11.0394 22.2959 12.9597 21.1123 14.1433L18.8056 16.45C18.7452 16.4259 18.6969 16.4138 18.6365 16.4138H17.5857C17.0543 16.4138 16.5229 16.1964 16.1365 15.8099L13.1413 12.8148C12.5978 12.2713 11.6437 12.2713 11.1002 12.8148L8.09299 15.822C7.71859 16.2085 7.18719 16.4259 6.64372 16.4259H5.35145C5.29106 16.4259 5.24275 16.438 5.19444 16.4621L2.88768 14.1554C1.70411 12.9718 1.70411 11.0394 2.88768 9.85584L5.20652 7.537C5.25483 7.56115 5.30314 7.57323 5.36353 7.57323H6.6558C7.1872 7.57323 7.7186 7.79062 8.10507 8.17709L11.1123 11.1843C11.3901 11.4621 11.7524 11.607 12.1268 11.607C12.4891 11.607 12.8635 11.4621 13.1413 11.1843L16.1365 8.18917C16.5109 7.8027 17.0423 7.58531 17.5857 7.58531H18.6365C18.6969 7.58531 18.7572 7.57323 18.8056 7.54908Z" />
	</mask>
	<path d="M8.72146 7.54952L7.6608 8.61018L7.6608 8.61018L8.72146 7.54952ZM11.7287 10.5568L12.7894 9.4961L11.7287 10.5568ZM12.5137 10.5568L11.4552 9.49397L11.4531 9.4961L12.5137 10.5568ZM15.521 7.56159L16.5795 8.62439L16.5816 8.62225L15.521 7.56159ZM17.9606 6.7041V8.2041H21.5819L19.0212 5.64345L17.9606 6.7041ZM14.1442 2.88768L15.2048 1.82702L15.2048 1.82702L14.1442 2.88768ZM9.84465 2.88768L10.9053 3.94834L9.84465 2.88768ZM6.04031 6.69203L4.97965 5.63137L2.41899 8.19203H6.04031V6.69203ZM15.5212 16.4382L14.4606 17.4989V17.4989L15.5212 16.4382ZM12.5261 13.443L13.5867 12.3824V12.3824L12.5261 13.443ZM11.741 13.443L10.6804 12.3824L10.6804 12.3824L11.741 13.443ZM8.73381 16.4503L9.79447 17.511L9.79447 17.511L8.73381 16.4503ZM6.06472 17.3078V15.8078H2.4434L5.00406 18.3684L6.06472 17.3078ZM9.86907 21.1121L10.9297 20.0515L9.86907 21.1121ZM14.1686 21.1121L15.2292 22.1728L14.1686 21.1121ZM17.985 17.2957L19.0457 18.3564L21.6063 15.7957H17.985V17.2957ZM21.1123 9.85584L22.173 8.79518L22.173 8.79518L21.1123 9.85584ZM18.8056 7.54908L19.8662 6.48841L19.1017 5.72394L18.1347 6.20743L18.8056 7.54908ZM21.1123 14.1433L22.173 15.2039L22.173 15.2039L21.1123 14.1433ZM18.8056 16.45L18.2485 17.8428L19.1668 18.2101L19.8662 17.5107L18.8056 16.45ZM16.1365 15.8099L15.0758 16.8706L15.0758 16.8706L16.1365 15.8099ZM13.1413 12.8148L14.202 11.7541L14.202 11.7541L13.1413 12.8148ZM11.1002 12.8148L12.1609 13.8754L11.1002 12.8148ZM8.09299 15.822L7.03233 14.7614L7.02391 14.7698L7.01563 14.7783L8.09299 15.822ZM5.19444 16.4621L4.13378 17.5228L4.89826 18.2873L5.86526 17.8038L5.19444 16.4621ZM2.88768 14.1554L3.94834 13.0947H3.94834L2.88768 14.1554ZM2.88768 9.85584L1.82702 8.79518L1.82702 8.79518L2.88768 9.85584ZM5.20652 7.537L5.87734 6.19536L4.91034 5.71186L4.14586 6.47634L5.20652 7.537ZM8.10507 8.17709L9.16573 7.11644L9.16573 7.11643L8.10507 8.17709ZM11.1123 11.1843L10.0517 12.245L10.0517 12.245L11.1123 11.1843ZM13.1413 11.1843L14.202 12.245L14.202 12.245L13.1413 11.1843ZM16.1365 8.18917L17.1971 9.24983L17.2056 9.24141L17.2138 9.23286L16.1365 8.18917ZM9.78212 6.48886C8.9424 5.64913 7.82295 5.19203 6.64417 5.19203V8.19203C7.03544 8.19203 7.38942 8.33879 7.6608 8.61018L9.78212 6.48886ZM12.7894 9.4961L9.78212 6.48885L7.6608 8.61018L10.6681 11.6174L12.7894 9.4961ZM11.4531 9.4961C11.8215 9.12771 12.421 9.12771 12.7894 9.4961L10.6681 11.6174C11.4712 12.4206 12.7712 12.4206 13.5744 11.6174L11.4531 9.4961ZM14.4624 6.4988L11.4552 9.49397L13.5723 11.6196L16.5795 8.62438L14.4624 6.4988ZM17.5983 5.2041C16.4195 5.2041 15.3 5.66121 14.4603 6.50093L16.5816 8.62225C16.853 8.35087 17.207 8.2041 17.5983 8.2041V5.2041ZM17.9606 5.2041H17.5983V8.2041H17.9606V5.2041ZM13.0835 3.94834L16.8999 7.76476L19.0212 5.64345L15.2048 1.82702L13.0835 3.94834ZM10.9053 3.94834C11.5031 3.35055 12.4857 3.35055 13.0835 3.94834L15.2048 1.82702C13.4355 0.0576596 10.5533 0.0576596 8.78399 1.82702L10.9053 3.94834ZM7.10097 7.75269L10.9053 3.94834L8.78399 1.82702L4.97965 5.63137L7.10097 7.75269ZM6.64417 5.19203H6.04031V8.19203H6.64417V5.19203ZM14.4606 17.4989C15.3003 18.3386 16.4198 18.7957 17.5985 18.7957V15.7957C17.2073 15.7957 16.8533 15.6489 16.5819 15.3776L14.4606 17.4989ZM11.4654 14.5037L14.4606 17.4989L16.5819 15.3776L13.5867 12.3824L11.4654 14.5037ZM12.8017 14.5037C12.582 14.7235 12.3243 14.7891 12.1336 14.7891C11.9428 14.7891 11.6852 14.7235 11.4654 14.5037L13.5867 12.3824C12.7956 11.5913 11.4715 11.5913 10.6804 12.3824L12.8017 14.5037ZM9.79447 17.511L12.8017 14.5037L10.6804 12.3824L7.67314 15.3896L9.79447 17.511ZM6.65651 18.8078C7.83529 18.8078 8.95474 18.3507 9.79447 17.511L7.67315 15.3896C7.40176 15.661 7.04778 15.8078 6.65651 15.8078V18.8078ZM6.06472 18.8078H6.65651V15.8078H6.06472V18.8078ZM10.9297 20.0515L7.12538 16.2471L5.00406 18.3684L8.80841 22.1728L10.9297 20.0515ZM13.1079 20.0515C12.5101 20.6493 11.5275 20.6493 10.9297 20.0515L8.80841 22.1728C10.5778 23.9421 13.4599 23.9421 15.2292 22.1728L13.1079 20.0515ZM16.9243 16.235L13.1079 20.0515L15.2292 22.1728L19.0457 18.3564L16.9243 16.235ZM17.5985 18.7957H17.985V15.7957H17.5985V18.7957ZM22.173 8.79518L19.8662 6.48841L17.7449 8.60974L20.0517 10.9165L22.173 8.79518ZM22.173 15.2039C23.9423 13.4346 23.9423 10.5645 22.173 8.79518L20.0517 10.9165C20.6494 11.5143 20.6494 12.4848 20.0517 13.0826L22.173 15.2039ZM19.8662 17.5107L22.173 15.2039L20.0517 13.0826L17.7449 15.3894L19.8662 17.5107ZM18.6365 17.9138C18.5606 17.9138 18.4785 17.9056 18.3956 17.8872C18.3186 17.87 18.265 17.8494 18.2485 17.8428L19.3626 15.0573C19.1828 14.9854 18.9413 14.9138 18.6365 14.9138V17.9138ZM17.5857 17.9138H18.6365V14.9138H17.5857V17.9138ZM15.0758 16.8706C15.743 17.5378 16.6557 17.9138 17.5857 17.9138V14.9138C17.4529 14.9138 17.3029 14.855 17.1971 14.7493L15.0758 16.8706ZM12.0806 13.8754L15.0758 16.8706L17.1971 14.7493L14.202 11.7541L12.0806 13.8754ZM12.1609 13.8754C12.1406 13.8958 12.123 13.9042 12.1166 13.9067C12.1113 13.9088 12.1133 13.9072 12.1208 13.9072C12.1282 13.9072 12.1302 13.9088 12.125 13.9067C12.1186 13.9042 12.101 13.8958 12.0806 13.8754L14.202 11.7541C13.0727 10.6249 11.1688 10.6249 10.0396 11.7541L12.1609 13.8754ZM9.15365 16.8827L12.1609 13.8754L10.0396 11.7541L7.03233 14.7614L9.15365 16.8827ZM6.64372 17.9259C7.57667 17.9259 8.50206 17.5556 9.17035 16.8657L7.01563 14.7783C6.93513 14.8614 6.79772 14.9259 6.64372 14.9259V17.9259ZM5.35145 17.9259H6.64372V14.9259H5.35145V17.9259ZM5.86526 17.8038C5.797 17.8379 5.71169 17.8716 5.61197 17.8951C5.51286 17.9184 5.42372 17.9259 5.35145 17.9259V14.9259C5.05971 14.9259 4.78156 14.9915 4.52362 15.1205L5.86526 17.8038ZM1.82702 15.216L4.13378 17.5228L6.2551 15.4015L3.94834 13.0947L1.82702 15.216ZM1.82702 8.79518C0.0576599 10.5645 0.0576599 13.4467 1.82702 15.216L3.94834 13.0947C3.35055 12.4969 3.35055 11.5143 3.94834 10.9165L1.82702 8.79518ZM4.14586 6.47634L1.82702 8.79518L3.94834 10.9165L6.26718 8.59766L4.14586 6.47634ZM5.36353 6.07323C5.43578 6.07323 5.52493 6.08072 5.62405 6.10405C5.72379 6.12751 5.8091 6.16123 5.87734 6.19536L4.5357 8.87864C4.79364 9.00761 5.07178 9.07323 5.36353 9.07323V6.07323ZM6.6558 6.07323H5.36353V9.07323H6.6558V6.07323ZM9.16573 7.11643C8.4985 6.44921 7.5858 6.07323 6.6558 6.07323V9.07323C6.7886 9.07323 6.93869 9.13204 7.04441 9.23776L9.16573 7.11643ZM12.173 10.1237L9.16573 7.11644L7.04441 9.23775L10.0517 12.245L12.173 10.1237ZM12.1268 10.107C12.1339 10.107 12.1441 10.1086 12.1551 10.1131C12.1603 10.1153 12.1647 10.1177 12.1681 10.12C12.1715 10.1223 12.1731 10.1238 12.173 10.1237L10.0517 12.245C10.6133 12.8066 11.3582 13.107 12.1268 13.107V10.107ZM12.0806 10.1237C12.0879 10.1164 12.0942 10.113 12.0983 10.1113C12.1014 10.1101 12.1097 10.107 12.1268 10.107V13.107C12.8767 13.107 13.6357 12.8113 14.202 12.245L12.0806 10.1237ZM15.0758 7.12851L12.0806 10.1237L14.202 12.245L17.1971 9.24983L15.0758 7.12851ZM17.5857 6.08531C16.6528 6.08531 15.7274 6.45563 15.0591 7.14548L17.2138 9.23286C17.2943 9.14977 17.4317 9.08531 17.5857 9.08531V6.08531ZM18.6365 6.08531H17.5857V9.08531H18.6365V6.08531ZM18.1347 6.20743C18.3371 6.10625 18.5165 6.08531 18.6365 6.08531V9.08531C18.8772 9.08531 19.1774 9.04021 19.4764 8.89072L18.1347 6.20743Z" fill="currentColor" mask="url(#path-1-inside-1_1420_16267)" />
</svg>
