<svg width="24" height="24" viewBox="0 0 24 24" fill="none" xmlns="http://www.w3.org/2000/svg">
	<path fill-rule="evenodd" clip-rule="evenodd" d="M6.64417 6.69203C7.42919 6.69203 8.16591 6.99396 8.72146 7.54952L11.7287 10.5568C11.9461 10.7742 12.2963 10.7742 12.5137 10.5568L15.521 7.56159C16.0765 7.00604 16.8132 6.7041 17.5983 6.7041H17.9606L14.1442 2.88768C12.9606 1.70411 11.0282 1.70411 9.84465 2.88768L6.04031 6.69203H6.64417ZM17.5985 17.2957C16.8135 17.2957 16.0768 16.9938 15.5212 16.4382L12.5261 13.443C12.3208 13.2377 11.9464 13.2377 11.741 13.443L8.73381 16.4503C8.17825 17.0058 7.44153 17.3078 6.65651 17.3078H6.06472L9.86907 21.1121C11.0526 22.2957 12.985 22.2957 14.1686 21.1121L17.985 17.2957H17.5985ZM18.8056 7.54908L21.1123 9.85584C22.2959 11.0394 22.2959 12.9597 21.1123 14.1433L18.8056 16.45C18.7452 16.4259 18.6969 16.4138 18.6365 16.4138H17.5857C17.0543 16.4138 16.5229 16.1964 16.1365 15.8099L13.1413 12.8148C12.5978 12.2713 11.6437 12.2713 11.1002 12.8148L8.09299 15.822C7.71859 16.2085 7.18719 16.4259 6.64372 16.4259H5.35145C5.29106 16.4259 5.24275 16.438 5.19444 16.4621L2.88768 14.1554C1.70411 12.9718 1.70411 11.0394 2.88768 9.85584L5.20652 7.537C5.25483 7.56115 5.30314 7.57323 5.36353 7.57323H6.6558C7.1872 7.57323 7.7186 7.79062 8.10507 8.17709L11.1123 11.1843C11.3901 11.4621 11.7524 11.607 12.1268 11.607C12.4891 11.607 12.8635 11.4621 13.1413 11.1843L16.1365 8.18917C16.5109 7.8027 17.0423 7.58531 17.5857 7.58531H18.6365C18.6969 7.58531 18.7572 7.57323 18.8056 7.54908Z" fill="currentColor" />
</svg>
