<svg width="24" height="24" viewBox="0 0 24 24" fill="none" xmlns="http://www.w3.org/2000/svg">
<g clip-path="url(#clip0_7_6672)">
<path d="M17.56 8.67999C17.56 12.67 13.43 16.99 11.88 16.99C10.33 16.99 6.20001 12.67 6.20001 8.67999C6.20001 7.16999 6.8 5.73 7.87 4.66C8.94 3.59 10.38 2.98999 11.89 2.98999C13.4 2.98999 14.84 3.59 15.91 4.66C16.98 5.73 17.57 7.16999 17.57 8.67999H17.56Z" stroke="black" stroke-width="1.5" stroke-miterlimit="10" stroke-linecap="round"/>
<path d="M11.88 10.84C13.07 10.84 14.04 9.86999 14.04 8.67999C14.04 7.48999 13.07 6.51999 11.88 6.51999C10.69 6.51999 9.71997 7.48999 9.71997 8.67999C9.71997 9.86999 10.69 10.84 11.88 10.84Z" stroke="black" stroke-width="1.5" stroke-miterlimit="10" stroke-linecap="round"/>
<path d="M15.88 13.53C18.27 14.22 19.88 15.52 19.88 17C19.88 19.21 16.3 21 11.88 21C7.46 21 3.88 19.21 3.88 17C3.88 15.52 5.49 14.23 7.88 13.53" stroke="black" stroke-width="1.5" stroke-miterlimit="10" stroke-linecap="round"/>
</g>
<defs>
<clipPath id="clip0_7_6672">
<rect width="24" height="24" fill="white"/>
</clipPath>
</defs>
</svg>
