<svg width="24" height="24" viewBox="0 0 24 24" fill="none" xmlns="http://www.w3.org/2000/svg">
<g clip-path="url(#clip0_7_6798)">
<path d="M9.35999 8.62999C9.67999 8.28999 10.05 8.01999 10.48 7.84999C10.9 7.67999 11.37 7.60999 11.83 7.63999C12.3 7.67999 12.74 7.80999 13.14 8.03999C13.54 8.26999 13.88 8.59999 14.13 8.97999C14.38 9.36999 14.55 9.79999 14.62 10.27C14.67 10.72 14.64 11.2 14.49 11.63C14.36 12.06 14.11 12.48 13.79 12.79C13.46 13.12 13.07 13.37 12.63 13.53" stroke="black" stroke-width="1.5" stroke-linecap="round" stroke-linejoin="round"/>
<path d="M21 12C21 7.02944 16.9706 3 12 3C7.02944 3 3 7.02944 3 12C3 16.9706 7.02944 21 12 21C16.9706 21 21 16.9706 21 12Z" stroke="black" stroke-width="1.5" stroke-linecap="round" stroke-linejoin="round"/>
<path d="M12 16.5H12.01" stroke="black" stroke-width="2" stroke-linecap="round"/>
</g>
<defs>
<clipPath id="clip0_7_6798">
<rect width="24" height="24" fill="white"/>
</clipPath>
</defs>
</svg>
