<svg width="24" height="24" viewBox="0 0 24 24" fill="none" xmlns="http://www.w3.org/2000/svg">
<g clip-path="url(#clip0_7_6626)">
<path d="M18.76 20.44C18.38 20.79 17.9 20.98 17.39 21C16.01 20.95 13.1 20.16 8.47998 15.52C3.84998 10.89 3.06001 7.93998 3.01001 6.60998C3.03001 6.09998 3.23001 5.60997 3.57001 5.22997L5.21002 3.59002C5.40002 3.39002 5.63 3.24001 5.88 3.14001C6.15 3.04001 6.42 3.01002 6.69 3.03002C6.96 3.05002 7.22002 3.14002 7.46002 3.28002C7.70002 3.42002 7.89999 3.61002 8.04999 3.84002L9.39001 5.72997C9.52001 5.94997 9.6 6.19 9.62 6.45C9.64 6.7 9.58999 6.95999 9.48999 7.18999L8.66998 8.92998C8.60998 9.05998 8.58002 9.20998 8.58002 9.35998C8.58002 9.50998 8.60998 9.64997 8.66998 9.78997C9.25998 11 10.08 12.09 11.08 12.98C11.98 13.98 13.06 14.8 14.27 15.4C14.4 15.46 14.54 15.49 14.7 15.49C14.86 15.49 14.99 15.46 15.13 15.4L16.84 14.51C17.08 14.4 17.33 14.36 17.59 14.37C17.85 14.39 18.09 14.47 18.31 14.6L20.2 15.94C20.43 16.09 20.63 16.29 20.77 16.53C20.9 16.77 21 17.03 21.02 17.3C21.05 17.57 21.02 17.85 20.92 18.11C20.82 18.37 20.66 18.6 20.47 18.79L18.79 20.45L18.76 20.44Z" stroke="black" stroke-width="1.5" stroke-miterlimit="10"/>
<path d="M20.99 3L14.99 9.01001" stroke="black" stroke-width="1.5" stroke-miterlimit="10" stroke-linecap="round"/>
<path d="M14.99 5V9.01001H18.99" stroke="black" stroke-width="1.5" stroke-linecap="round" stroke-linejoin="round"/>
</g>
<defs>
<clipPath id="clip0_7_6626">
<rect width="24" height="24" fill="white"/>
</clipPath>
</defs>
</svg>
