<svg width="24" height="24" viewBox="0 0 24 24" fill="none" xmlns="http://www.w3.org/2000/svg">
<g clip-path="url(#clip0_7_6698)">
<path d="M20.88 13.53C20.27 17.27 17.48 20.13 13.77 20.83C11.73 21.22 9.80002 20.91 8.13002 20.13C7.85002 19.99 7.41 19.94 7.11 20C6.49 20.15 5.43002 20.41 4.54002 20.61C3.68002 20.82 3.15001 20.29 3.37001 19.44L3.98002 16.88C4.05002 16.58 3.98002 16.13 3.85002 15.85C3.09002 14.26 2.79002 12.41 3.10002 10.47C3.70002 6.75001 6.72002 3.72999 10.45 3.10999C16.61 2.11999 21.86 7.36 20.85 13.52L20.88 13.53Z" stroke="black" stroke-width="1.5" stroke-linecap="round" stroke-linejoin="round"/>
<path d="M12 8.09V12.89" stroke="black" stroke-width="1.5" stroke-linecap="round" stroke-linejoin="round"/>
<path d="M12 16.5H12.01" stroke="black" stroke-width="2" stroke-linecap="round"/>
</g>
<defs>
<clipPath id="clip0_7_6698">
<rect width="24" height="24" fill="white"/>
</clipPath>
</defs>
</svg>
