<svg width="24" height="24" viewBox="0 0 24 24" fill="none" xmlns="http://www.w3.org/2000/svg">
<g clip-path="url(#clip0_7_6627)">
<path d="M12 13.5V10.5" stroke="black" stroke-width="1.5" stroke-miterlimit="10" stroke-linecap="round"/>
<path d="M12 21V19.5" stroke="black" stroke-width="1.5" stroke-miterlimit="10" stroke-linecap="round"/>
<path d="M12 4.5V3" stroke="black" stroke-width="1.5" stroke-miterlimit="10" stroke-linecap="round"/>
<path d="M17 13.5H7.01001C5.90001 13.5 5.01001 14.4 5.01001 15.5V17.49C5.01001 18.6 5.91001 19.49 7.01001 19.49H17C18.11 19.49 19 18.59 19 17.49V15.5C19 14.39 18.1 13.5 17 13.5Z" stroke="black" stroke-width="1.5" stroke-miterlimit="10"/>
<path d="M14.99 4.5H9C7.89 4.5 7 5.4 7 6.5V8.48999C7 9.59999 7.9 10.49 9 10.49H14.99C16.1 10.49 16.99 9.58999 16.99 8.48999V6.5C16.99 5.39 16.09 4.5 14.99 4.5Z" stroke="black" stroke-width="1.5" stroke-miterlimit="10"/>
</g>
<defs>
<clipPath id="clip0_7_6627">
<rect width="24" height="24" fill="white"/>
</clipPath>
</defs>
</svg>
