<svg width="24" height="24" viewBox="0 0 24 24" fill="none" xmlns="http://www.w3.org/2000/svg">
<g clip-path="url(#clip0_7_6635)">
<path d="M17.95 12.65C17.95 12.93 18.01 13.2 18.01 13.48C18.01 14.97 17.58 16.42 16.75 17.66C15.93 18.9 14.76 19.86 13.39 20.43C12.02 21 10.51 21.15 9.05002 20.86C7.59002 20.57 6.25005 19.86 5.20005 18.81C4.16005 17.76 3.44003 16.42 3.15003 14.96C2.85003 13.5 3.00004 11.99 3.57004 10.62C4.13004 9.25 5.10002 8.07 6.33002 7.25C7.57002 6.42 9.02003 5.97998 10.5 5.97998C10.78 5.97998 11.05 6.00003 11.33 6.03003" stroke="black" stroke-width="1.5" stroke-miterlimit="10" stroke-linecap="round"/>
<path d="M19.35 12.65H12.96C12.53 12.65 12.11 12.48 11.81 12.17C11.51 11.86 11.33 11.45 11.33 11.01V4.65999C11.33 4.40999 11.36 4.17002 11.46 3.94002C11.56 3.71002 11.71 3.51 11.9 3.36C12.09 3.2 12.32 3.08999 12.56 3.03999C12.8 2.98999 13.05 2.99 13.29 3.05C15.17 3.44 16.91 4.37 18.27 5.73C19.63 7.09 20.56 8.82999 20.95 10.72C21.01 10.96 21.01 11.2 20.95 11.44C20.89 11.68 20.78 11.9 20.63 12.08C20.47 12.27 20.28 12.42 20.06 12.51C19.83 12.61 19.59 12.66 19.35 12.65Z" stroke="black" stroke-width="1.5" stroke-miterlimit="10" stroke-linecap="round"/>
</g>
<defs>
<clipPath id="clip0_7_6635">
<rect width="24" height="24" fill="white"/>
</clipPath>
</defs>
</svg>
