<svg width="24" height="24" viewBox="0 0 24 24" fill="none" xmlns="http://www.w3.org/2000/svg">
<g clip-path="url(#clip0_7_6642)">
<path d="M16.85 17.67L12.34 13.16C12.04 12.85 11.86 12.44 11.86 12C11.86 11.56 12.04 11.15 12.34 10.84L16.85 6.33002C17.02 6.15002 17.22 6.00999 17.45 5.91999C17.68 5.82999 17.93 5.80001 18.18 5.82001C18.43 5.85001 18.66 5.93 18.87 6.06C19.08 6.19 19.25 6.37003 19.38 6.59003C20.44 8.20003 21 10.08 21 12.01C21 13.94 20.44 15.82 19.38 17.43C19.25 17.64 19.08 17.82 18.87 17.95C18.66 18.08 18.42 18.16 18.18 18.19C17.93 18.21 17.68 18.19 17.45 18.09C17.22 17.99 17.02 17.86 16.85 17.67Z" stroke="black" stroke-width="1.5" stroke-miterlimit="10" stroke-linecap="round"/>
<path d="M16.13 16.95C15.12 18.1 13.8 18.91 12.31 19.28C10.83 19.65 9.27998 19.56 7.84998 19.02C6.42998 18.48 5.20003 17.52 4.34003 16.27C3.47003 15.02 3 13.53 3 12C3 10.47 3.47003 8.98996 4.34003 7.72996C5.21003 6.47996 6.42998 5.51996 7.84998 4.97996C9.27998 4.43996 10.84 4.34995 12.31 4.71995C13.79 5.08995 15.12 5.89997 16.13 7.04997" stroke="black" stroke-width="1.5" stroke-miterlimit="10" stroke-linecap="round"/>
</g>
<defs>
<clipPath id="clip0_7_6642">
<rect width="24" height="24" fill="white"/>
</clipPath>
</defs>
</svg>
