<svg width="24" height="24" viewBox="0 0 24 24" fill="none" xmlns="http://www.w3.org/2000/svg">
<g clip-path="url(#clip0_7_6712)">
<path d="M12.91 3.59L14.9 7.81C15.05 8.12 15.33 8.34002 15.67 8.39002L20.13 9.07001C20.96 9.20001 21.3 10.27 20.69 10.88L17.46 14.17C17.22 14.41 17.11 14.77 17.17 15.11L17.93 19.75C18.07 20.62 17.2 21.28 16.45 20.87L12.46 18.68C12.16 18.52 11.81 18.52 11.51 18.68L7.51998 20.87C6.76998 21.28 5.9 20.62 6.04 19.75L6.79998 15.11C6.85998 14.77 6.75 14.41 6.51 14.17L3.27999 10.88C2.67999 10.27 3.00999 9.19001 3.83999 9.07001L8.29998 8.39002C8.62998 8.34002 8.92 8.12 9.07 7.81L11.06 3.59C11.43 2.8 12.51 2.8 12.88 3.59H12.91Z" stroke="black" stroke-width="1.5" stroke-linecap="round" stroke-linejoin="round"/>
</g>
<defs>
<clipPath id="clip0_7_6712">
<rect width="24" height="24" fill="white"/>
</clipPath>
</defs>
</svg>
