<svg width="24" height="24" viewBox="0 0 24 24" fill="none" xmlns="http://www.w3.org/2000/svg">
<g clip-path="url(#clip0_7_6624)">
<path d="M12.39 21H7.00999C5.94999 21 4.93 20.57 4.18 19.82C3.43 19.07 3.00999 18.05 3.00999 16.99V6.98999C3.00999 5.92999 3.42999 4.90998 4.18999 4.16998C4.93999 3.41998 5.94999 3 7.00999 3H17.01C18.07 3 19.09 3.41998 19.83 4.16998C20.57 4.91998 21 5.92999 21 6.98999V12.38C20.94 13.56 20.47 14.68 19.68 15.56L15.57 19.68C14.69 20.47 13.57 20.94 12.39 21Z" stroke="black" stroke-width="1.5" stroke-miterlimit="10" stroke-linecap="round"/>
<path d="M13.13 17.62V14.8C13.13 14.35 13.31 13.93 13.63 13.61C13.94 13.3 14.38 13.12 14.82 13.12H17.59" stroke="black" stroke-width="1.5" stroke-miterlimit="10" stroke-linecap="round"/>
</g>
<defs>
<clipPath id="clip0_7_6624">
<rect width="24" height="24" fill="white"/>
</clipPath>
</defs>
</svg>
