<svg width="24" height="24" viewBox="0 0 24 24" fill="none" xmlns="http://www.w3.org/2000/svg">
<g clip-path="url(#clip0_7_6839)">
<path d="M20.88 13.53C20.26 17.26 17.49 20.13 13.77 20.83C11.73 21.22 9.79999 20.92 8.12999 20.13C7.85999 20 7.41 19.94 7.12 20.01C6.49 20.16 5.44 20.42 4.55 20.63C3.7 20.84 3.16999 20.31 3.37999 19.46L4 16.9C4.08 16.61 3.99999 16.15 3.87999 15.88C3.11999 14.29 2.81999 12.44 3.12999 10.5C3.73999 6.77001 6.75 3.75001 10.48 3.13001C16.64 2.14001 21.89 7.38 20.88 13.54V13.53Z" stroke="black" stroke-width="1.5" stroke-linecap="round" stroke-linejoin="round"/>
<path d="M14.7 12H9.3" stroke="black" stroke-width="1.5" stroke-linecap="round" stroke-linejoin="round"/>
</g>
<defs>
<clipPath id="clip0_7_6839">
<rect width="24" height="24" fill="white"/>
</clipPath>
</defs>
</svg>
