<svg width="24" height="24" viewBox="0 0 24 24" fill="none" xmlns="http://www.w3.org/2000/svg">
	<path d="M18.6202 12C18.6202 12.62 18.8702 13.22 19.3102 13.66C19.7502 14.1 20.3602 14.35 20.9802 14.35V16.22C20.9802 17.09 20.6303 17.92 20.0103 18.54C19.3903 19.16 18.5502 19.5 17.6702 19.51H6.30023C5.42023 19.51 4.58027 19.16 3.96027 18.54C3.34027 17.92 2.99023 17.09 2.99023 16.22V14.35C3.59023 14.31 4.16025 14.05 4.57025 13.61C4.98025 13.17 5.21027 12.6 5.21027 12C5.21027 11.4 4.98025 10.83 4.57025 10.39C4.16025 9.95001 3.59023 9.68999 2.99023 9.64999V7.78C2.99023 6.91 3.34027 6.07999 3.96027 5.45999C4.58027 4.83999 5.42023 4.49999 6.30023 4.48999H17.6802C18.5602 4.48999 19.4003 4.83999 20.0203 5.45999C20.6403 6.07999 20.9902 6.91 20.9902 7.78V9.64999C20.3602 9.64999 19.7602 9.9 19.3102 10.34C18.8602 10.78 18.6102 11.38 18.6102 12H18.6202Z" fill="currentColor" stroke="currentColor" stroke-width="1.5" stroke-linejoin="round" />
	<path d="M10.0498 9.66V14.34V9.66Z" fill="#FDFDFD" />
	<path d="M10.0498 9.66V14.34" stroke="#FDFDFD" stroke-width="1.5" stroke-linecap="round" stroke-linejoin="round" />
</svg>
