<svg width="24" height="24" viewBox="0 0 24 24" fill="none" xmlns="http://www.w3.org/2000/svg">
<g clip-path="url(#clip0_7_6618)">
<path d="M17.05 14.73C17.2 15.12 17.46 15.46 17.81 15.68C18.17 15.91 18.58 16.02 19 15.99V17.5C19 18.43 18.63 19.32 17.97 19.97C17.32 20.62 16.42 20.99 15.5 20.99H8.5C7.58 20.99 6.68003 20.62 6.03003 19.97C5.37003 19.32 5 18.43 5 17.5V15.99C5.27 16.01 5.54 15.97 5.81 15.88C6.07 15.79 6.31001 15.64 6.51001 15.46C6.71001 15.27 6.86998 15.05 6.97998 14.79C7.09998 14.54 7.15002 14.27 7.15002 13.99C7.15002 13.71 7.09998 13.44 6.97998 13.19C6.86998 12.94 6.72001 12.71 6.51001 12.52C6.31001 12.33 6.07 12.19 5.81 12.1C5.55 12.01 5.28 11.97 5 11.99V6.48999C5 5.55999 5.37003 4.67002 6.03003 4.02002C6.68003 3.36002 7.58 2.98999 8.5 2.98999H15.5C16.42 2.98999 17.32 3.36002 17.97 4.02002C18.63 4.68002 19 5.56999 19 6.48999V11.99H18.93C18.6 11.99 18.28 12.07 17.99 12.22C17.71 12.37 17.46 12.59 17.27 12.86C17.09 13.13 16.97 13.44 16.93 13.77C16.89 14.1 16.93 14.42 17.06 14.73H17.05Z" stroke="black" stroke-width="1.5" stroke-linecap="round" stroke-linejoin="round"/>
<path d="M10.49 14H13.5" stroke="black" stroke-width="1.5" stroke-linecap="round" stroke-linejoin="round"/>
</g>
<defs>
<clipPath id="clip0_7_6618">
<rect width="24" height="24" fill="white"/>
</clipPath>
</defs>
</svg>
