<svg width="24" height="24" viewBox="0 0 24 24" fill="none" xmlns="http://www.w3.org/2000/svg">
<g clip-path="url(#clip0_7_6663)">
<path d="M18.62 12C18.62 12.62 18.87 13.22 19.31 13.66C19.75 14.1 20.36 14.35 20.98 14.35V16.22C20.98 17.09 20.63 17.92 20.01 18.54C19.39 19.16 18.55 19.5 17.67 19.51H6.29999C5.41999 19.51 4.58002 19.16 3.96002 18.54C3.34002 17.92 2.98999 17.09 2.98999 16.22V14.35C3.58999 14.31 4.16001 14.05 4.57001 13.61C4.98001 13.17 5.21002 12.6 5.21002 12C5.21002 11.4 4.98001 10.83 4.57001 10.39C4.16001 9.95001 3.58999 9.68999 2.98999 9.64999V7.78C2.98999 6.91 3.34002 6.07999 3.96002 5.45999C4.58002 4.83999 5.41999 4.49999 6.29999 4.48999H17.68C18.56 4.48999 19.4 4.83999 20.02 5.45999C20.64 6.07999 20.99 6.91 20.99 7.78V9.64999C20.36 9.64999 19.76 9.9 19.31 10.34C18.86 10.78 18.61 11.38 18.61 12H18.62Z" stroke="black" stroke-width="1.5" stroke-linejoin="round"/>
<path d="M10.05 9.66V14.34" stroke="black" stroke-width="1.5" stroke-linecap="round" stroke-linejoin="round"/>
</g>
<defs>
<clipPath id="clip0_7_6663">
<rect width="24" height="24" fill="white"/>
</clipPath>
</defs>
</svg>
