<svg width="24" height="24" viewBox="0 0 24 24" fill="none" xmlns="http://www.w3.org/2000/svg">
	<path d="M5.52246 8.00006C5.38123 8.0016 5.24683 8.03728 5.14878 8.09915C5.05087 8.16111 4.99732 8.24421 5.00014 8.3302V9.43668C4.99687 9.52375 5.05147 9.60793 5.1516 9.67027C5.25158 9.73259 5.38865 9.76764 5.53181 9.76764C5.67481 9.76764 5.81188 9.73259 5.91203 9.67027C6.01201 9.60794 6.0666 9.52376 6.06349 9.43668V8.3302C6.0663 8.24222 6.01023 8.15741 5.90817 8.09518C5.80611 8.03285 5.66678 7.99853 5.52246 8.00006ZM8.10911 8.00006C7.96788 8.0016 7.83349 8.03728 7.73543 8.09915C7.63753 8.16111 7.58397 8.24421 7.58679 8.33011V13.1929C7.58353 13.28 7.63812 13.3642 7.73825 13.4265C7.83823 13.4888 7.9753 13.5239 8.11846 13.5239C8.26147 13.5239 8.39854 13.4888 8.49868 13.4265C8.59866 13.3642 8.65325 13.28 8.65014 13.1929V8.33011C8.65296 8.24213 8.59688 8.15732 8.49482 8.09509C8.39276 8.03276 8.25343 7.99853 8.10911 8.00006ZM10.6989 8.00006C10.5571 8.00115 10.4219 8.03655 10.3233 8.09851C10.2246 8.16048 10.1706 8.24385 10.1734 8.33011V15.6689C10.1702 15.7561 10.2248 15.8402 10.3249 15.9026C10.4249 15.9648 10.562 15.9999 10.7051 15.9999C10.8481 15.9999 10.9852 15.9648 11.0853 15.9026C11.1853 15.8402 11.2399 15.756 11.2368 15.6689V8.33011C11.2396 8.2425 11.184 8.15796 11.0825 8.09572C10.9812 8.03357 10.8428 7.99898 10.6989 8.00006ZM13.2855 8.00006C13.1443 8.0016 13.0099 8.03728 12.9118 8.09915C12.8139 8.16111 12.7604 8.24421 12.7632 8.33011V9.43659C12.7599 9.52375 12.8145 9.60794 12.9147 9.67025C13.0146 9.73248 13.1517 9.76762 13.2949 9.76762C13.4379 9.76762 13.575 9.73248 13.6751 9.67025C13.7751 9.60792 13.8297 9.52374 13.8266 9.43659V8.3302C13.8294 8.24222 13.7733 8.15741 13.6712 8.09518C13.5692 8.03285 13.4299 7.99853 13.2855 8.00006ZM15.8712 8.00006C15.7301 8.00178 15.596 8.03746 15.4982 8.09942C15.4005 8.16129 15.3471 8.2443 15.3499 8.33011V13.1929C15.3466 13.28 15.4012 13.3642 15.5013 13.4265C15.6013 13.4888 15.7384 13.5239 15.8815 13.5239C16.0246 13.5239 16.1616 13.4888 16.2618 13.4265C16.3617 13.3642 16.4163 13.28 16.4132 13.1929V8.33011C16.416 8.24204 16.3598 8.15705 16.2576 8.09481C16.1553 8.03257 16.0158 7.99835 15.8712 8.00006ZM18.462 8.00006C18.32 8.00096 18.1846 8.03628 18.0856 8.09824C17.9868 8.1603 17.9327 8.24376 17.9355 8.3301V15.6689C17.9355 15.8479 18.1737 15.993 18.4676 15.993C18.7616 15.993 18.9999 15.8479 18.9999 15.6689V8.3301C19.0027 8.24248 18.9471 8.15794 18.8456 8.0957C18.7443 8.03356 18.6059 7.99898 18.462 8.00006ZM5.52663 10.4761C5.50824 10.4763 5.48984 10.4772 5.4716 10.4787C5.19968 10.4976 4.99572 10.639 5.00017 10.8056V15.669C4.9969 15.7561 5.05149 15.8403 5.15162 15.9026C5.25161 15.965 5.38868 16 5.53184 16C5.67484 16 5.81191 15.965 5.91205 15.9026C6.01204 15.8403 6.06663 15.7561 6.06351 15.669V10.8056C6.06603 10.7181 6.01041 10.6339 5.90924 10.5718C5.80821 10.5098 5.67007 10.4752 5.52663 10.4761ZM13.2897 10.4761C13.2713 10.4763 13.2529 10.4772 13.2346 10.4787C12.9627 10.4976 12.7588 10.639 12.7632 10.8056V15.669C12.7599 15.7561 12.8145 15.8403 12.9147 15.9026C13.0146 15.965 13.1517 16 13.2949 16C13.4379 16 13.5749 15.965 13.6751 15.9026C13.7751 15.8403 13.8297 15.7561 13.8265 15.669V10.8056C13.8291 10.7181 13.7734 10.6339 13.6723 10.5718C13.5712 10.5099 13.4331 10.4752 13.2897 10.4761ZM8.10899 14.2349C7.81661 14.2381 7.58325 14.3844 7.58667 14.5625V15.6689C7.58341 15.7561 7.638 15.8403 7.73813 15.9026C7.83812 15.9648 7.97519 16 8.11835 16C8.26135 16 8.39842 15.9648 8.49856 15.9026C8.59854 15.8403 8.65313 15.7561 8.65002 15.6689V14.5626C8.65165 14.475 8.59513 14.3908 8.49322 14.3292C8.39131 14.2675 8.25258 14.2334 8.10899 14.2349ZM15.8709 14.2349C15.5788 14.2385 15.3461 14.3847 15.3496 14.5625V15.6689C15.3463 15.7561 15.4009 15.8403 15.501 15.9026C15.601 15.9648 15.7381 16 15.8813 16C16.0243 16 16.1613 15.9648 16.2615 15.9026C16.3615 15.8403 16.4161 15.7561 16.4129 15.6689V14.5626C16.4146 14.4749 16.3579 14.3907 16.2557 14.3289C16.1536 14.2672 16.0148 14.2332 15.8709 14.2349Z" fill="currentColor" />
	<rect x="1.75" y="4.75" width="20.5" height="14.5" rx="3.25" stroke="currentColor" stroke-width="1.5" />
</svg>
