<svg width="24" height="24" viewBox="0 0 24 24" fill="none" xmlns="http://www.w3.org/2000/svg">
<g clip-path="url(#clip0_7_6805)">
<path d="M9.98001 3H13.97" stroke="black" stroke-width="1.5" stroke-linecap="round" stroke-linejoin="round"/>
<path d="M6.34001 7.38001C9.45001 4.26001 14.5 4.26001 17.62 7.38001C20.73 10.5 20.73 15.55 17.62 18.66C14.51 21.78 9.46001 21.78 6.34001 18.66C3.23001 15.54 3.23001 10.49 6.34001 7.38001Z" stroke="black" stroke-width="1.5" stroke-linecap="round" stroke-linejoin="round"/>
<path d="M11.98 8.39999V12.52C11.7 12.52 11.48 12.74 11.48 13.02C11.48 13.3 11.7 13.52 11.98 13.52C12.26 13.52 12.48 13.3 12.48 13.02C12.48 12.74 12.26 12.52 11.98 12.52" stroke="black" stroke-width="1.5" stroke-linecap="round" stroke-linejoin="round"/>
<path d="M18.48 6.51001L17.61 7.38" stroke="black" stroke-width="1.5" stroke-linecap="round" stroke-linejoin="round"/>
<path d="M18.01 4.98999L20 6.98001" stroke="black" stroke-width="1.5" stroke-linecap="round" stroke-linejoin="round"/>
</g>
<defs>
<clipPath id="clip0_7_6805">
<rect width="24" height="24" fill="white"/>
</clipPath>
</defs>
</svg>
