<svg width="24" height="24" viewBox="0 0 24 24" fill="none" xmlns="http://www.w3.org/2000/svg">
<g clip-path="url(#clip0_7_6657)">
<path d="M19.3 10.79C14.45 10.28 9.55999 10.28 4.70999 10.79C4.45999 10.82 4.21 10.79 3.97 10.7C3.73 10.61 3.52999 10.47 3.35999 10.28C3.19999 10.09 3.08 9.87 3.03 9.63C2.97 9.39 2.97999 9.13999 3.04999 8.89999L3.88001 5.64999C4.07001 4.88999 4.52 4.21999 5.15 3.73999C5.78 3.25999 6.54999 3 7.35999 3H16.65C17.44 3 18.22 3.25999 18.85 3.73999C19.48 4.21999 19.92 4.88999 20.12 5.64999L20.95 8.89999C21.02 9.13999 21.03 9.38 20.97 9.62C20.92 9.86 20.81 10.08 20.64 10.27C20.49 10.46 20.27 10.6 20.04 10.69C19.81 10.78 19.56 10.81 19.3 10.78V10.79Z" stroke="black" stroke-width="1.5" stroke-miterlimit="10" stroke-linecap="round"/>
<path d="M19.15 10.78V17.51C19.15 18.44 18.77 19.32 18.1 19.98C17.43 20.63 16.52 21 15.58 21H8.42999C7.47999 21 6.57 20.63 5.91 19.98C5.24 19.33 4.87 18.44 4.87 17.52V10.79" stroke="black" stroke-width="1.5" stroke-miterlimit="10" stroke-linecap="round"/>
<path d="M11.87 15.02H12.14C12.78 15.02 13.4 15.27 13.85 15.71C14.3 16.15 14.56 16.75 14.56 17.38V21H9.45001V17.38C9.45001 16.75 9.7 16.15 10.16 15.71C10.61 15.27 11.23 15.02 11.87 15.02V15.02Z" stroke="black" stroke-width="1.5" stroke-miterlimit="10" stroke-linecap="round"/>
</g>
<defs>
<clipPath id="clip0_7_6657">
<rect width="24" height="24" fill="white"/>
</clipPath>
</defs>
</svg>
