<svg width="24" height="24" viewBox="0 0 24 24" fill="none" xmlns="http://www.w3.org/2000/svg">
<g clip-path="url(#clip0_7_6810)">
<path d="M12.01 21.01C16.98 21.01 21.01 16.98 21.01 12.01C21.01 7.04001 16.98 3.01001 12.01 3.01001C7.04001 3.01001 3.01001 7.04001 3.01001 12.01C3.01001 16.98 7.04001 21.01 12.01 21.01Z" stroke="black" stroke-width="1.5" stroke-linecap="round" stroke-linejoin="round"/>
<path d="M9.52002 13.89C9.52002 14.86 10.27 15.64 11.19 15.64H13.07C13.87 15.64 14.52 14.96 14.52 14.11C14.52 13.2 14.12 12.87 13.53 12.66L10.52 11.61C9.93002 11.4 9.53001 11.08 9.53001 10.16C9.53001 9.32001 10.18 8.63 10.98 8.63H12.86C13.78 8.63 14.53 9.41 14.53 10.38" stroke="black" stroke-width="1.5" stroke-linecap="round" stroke-linejoin="round"/>
<path d="M12.02 7.63V16.64" stroke="black" stroke-width="1.5" stroke-linecap="round" stroke-linejoin="round"/>
</g>
<defs>
<clipPath id="clip0_7_6810">
<rect width="24" height="24" fill="white"/>
</clipPath>
</defs>
</svg>
