<svg width="24" height="24" viewBox="0 0 24 24" fill="none" xmlns="http://www.w3.org/2000/svg">
<g clip-path="url(#clip0_7_6733)">
<path d="M12 12.32C13.21 12.32 14.19 11.34 14.19 10.13C14.19 8.92 13.21 7.94 12 7.94C10.79 7.94 9.81 8.92 9.81 10.13C9.81 11.34 10.79 12.32 12 12.32Z" stroke="black" stroke-width="1.5" stroke-linecap="round" stroke-linejoin="round"/>
<path d="M9.63 16.05C10.69 14.26 13.28 14.25 14.36 16.03V16.05" stroke="black" stroke-width="1.5" stroke-linecap="round" stroke-linejoin="round"/>
<path d="M11.93 3C16.94 3 21 7.03 21 12C21 16.97 16.94 21 11.93 21" stroke="black" stroke-width="1.5" stroke-linecap="round" stroke-linejoin="round"/>
<path d="M8.82996 20.45C7.83996 20.09 6.90998 19.57 6.09998 18.89" stroke="black" stroke-width="1.5" stroke-linecap="round" stroke-linejoin="round"/>
<path d="M6.09998 5.10999C6.90998 4.43999 7.83996 3.90999 8.82996 3.54999" stroke="black" stroke-width="1.5" stroke-linecap="round" stroke-linejoin="round"/>
<path d="M3 10.44C3.18 9.41 3.54999 8.41 4.07999 7.5" stroke="black" stroke-width="1.5" stroke-linecap="round" stroke-linejoin="round"/>
<path d="M3 13.56C3.18 14.59 3.54999 15.59 4.07999 16.5" stroke="black" stroke-width="1.5" stroke-linecap="round" stroke-linejoin="round"/>
</g>
<defs>
<clipPath id="clip0_7_6733">
<rect width="24" height="24" fill="white"/>
</clipPath>
</defs>
</svg>
