<svg width="24" height="24" viewBox="0 0 24 24" fill="none" xmlns="http://www.w3.org/2000/svg">
<g clip-path="url(#clip0_7_6850)">
<path d="M15.93 6.51001H17.5C18.43 6.51001 19.32 6.88 19.97 7.53C20.62 8.19 20.99 9.07 20.99 10V17.5C20.99 18.43 20.62 19.32 19.97 19.97C19.32 20.63 18.43 20.99 17.5 20.99H6.48999C5.55999 20.99 4.66999 20.62 4.01999 19.97C3.36999 19.31 3 18.43 3 17.5V10C3 9.07 3.36999 8.18 4.01999 7.53C4.66999 6.87 5.55999 6.51001 6.48999 6.51001H8.97" stroke="black" stroke-width="1.5" stroke-miterlimit="10" stroke-linecap="round"/>
<path d="M8.98001 5.00001V9.02C8.98001 10.91 10.4 11.59 12.14 10.43L15.15 8.41002C15.39 8.26002 15.59 8.05 15.72 7.8C15.86 7.55 15.93 7.27 15.93 6.99C15.93 6.71 15.86 6.43 15.72 6.18C15.59 5.93 15.39 5.72002 15.15 5.57002L12.14 3.56001C10.41 2.42001 8.98001 3.06001 8.98001 5.00001Z" stroke="black" stroke-width="1.5" stroke-miterlimit="10" stroke-linecap="round"/>
<path d="M3 16H21" stroke="black" stroke-width="1.5" stroke-miterlimit="10" stroke-linecap="round"/>
<path d="M10.03 16L6.89001 21" stroke="black" stroke-width="1.5" stroke-miterlimit="10" stroke-linecap="round"/>
<path d="M17.11 16L13.98 21" stroke="black" stroke-width="1.5" stroke-miterlimit="10" stroke-linecap="round"/>
</g>
<defs>
<clipPath id="clip0_7_6850">
<rect width="24" height="24" fill="white"/>
</clipPath>
</defs>
</svg>
