<svg width="24" height="24" viewBox="0 0 24 24" fill="none" xmlns="http://www.w3.org/2000/svg">
<g clip-path="url(#clip0_7_6658)">
<path d="M17.83 7.98999C18.47 8.44999 18.99 9.06 19.35 9.75C19.71 10.45 19.9 11.21 19.9 11.99C19.9 12.77 19.71 13.54 19.35 14.23C18.99 14.93 18.47 15.53 17.83 15.99" stroke="black" stroke-width="1.5" stroke-linecap="round" stroke-linejoin="round"/>
<path d="M13.87 6.73999V17.2C13.87 19.1 12.75 19.55 11.37 18.18C10.08 17.02 8.41 16.33 6.66 16.22C5.94 16.22 5.26001 15.93 4.74001 15.44C4.22001 14.95 3.93 14.28 3.91 13.58V10.35C3.91 9.99 3.98 9.63999 4.12 9.30999C4.26 8.97999 4.47 8.67999 4.73 8.42999C4.99 8.17999 5.29 7.97999 5.63 7.83999C5.97 7.69999 6.33 7.63001 6.7 7.64001C8.46 7.53001 10.12 6.83999 11.41 5.67999C12.73 4.41999 13.86 4.86999 13.86 6.73999H13.87Z" stroke="black" stroke-width="1.5" stroke-miterlimit="10"/>
</g>
<defs>
<clipPath id="clip0_7_6658">
<rect width="24" height="24" fill="white"/>
</clipPath>
</defs>
</svg>
