<svg width="24" height="24" viewBox="0 0 24 24" fill="none" xmlns="http://www.w3.org/2000/svg">
<g clip-path="url(#clip0_7_6650)">
<path d="M15.23 8.89001C15.73 9.26001 16.12 9.74001 16.4 10.29C16.68 10.84 16.82 11.45 16.82 12.07C16.82 12.69 16.68 13.3 16.4 13.85C16.12 14.4 15.73 14.88 15.23 15.25" stroke="black" stroke-width="1.5" stroke-linecap="round" stroke-linejoin="round"/>
<path d="M18.89 6.95001C19.56 7.61001 20.1 8.39999 20.46 9.26999C20.82 10.14 21.01 11.07 21.01 12.02C21.01 12.97 20.82 13.9 20.46 14.77C20.1 15.64 19.56 16.43 18.89 17.09" stroke="black" stroke-width="1.5" stroke-linecap="round" stroke-linejoin="round"/>
<path d="M12.01 7.17002V16.87C12.01 18.62 11 19.04 9.77002 17.77C8.60002 16.7 7.11002 16.06 5.52002 15.97C5.19002 15.97 4.86 15.91 4.56 15.78C4.25 15.65 3.96999 15.47 3.73999 15.23C3.50999 14.99 3.32 14.72 3.19 14.41C3.06 14.1 3 13.78 3 13.44V10.45C3 9.78002 3.26999 9.14001 3.73999 8.66001C4.21999 8.19001 4.86002 7.92002 5.52002 7.92002C7.10002 7.82002 8.60002 7.18 9.77002 6.12C11 4.99 12.01 5.41001 12.01 7.16001V7.17002Z" stroke="black" stroke-width="1.5" stroke-miterlimit="10"/>
</g>
<defs>
<clipPath id="clip0_7_6650">
<rect width="24" height="24" fill="white"/>
</clipPath>
</defs>
</svg>
