<svg width="24" height="24" viewBox="0 0 24 24" fill="none" xmlns="http://www.w3.org/2000/svg">
<g clip-path="url(#clip0_7_6772)">
<path d="M20.5 14.91V9.10999C20.5 8.54999 20.35 7.99001 20.07 7.51001C19.78 7.02001 19.37 6.61998 18.88 6.34998L13.57 3.41998C13.1 3.14998 12.56 3.01001 12.01 3.01001C11.46 3.01001 10.92 3.14998 10.45 3.41998L5.14001 6.34998C4.65001 6.61998 4.24002 7.02001 3.94002 7.51001C3.65002 7.99001 3.51001 8.54999 3.51001 9.10999V14.91C3.51001 15.47 3.66002 16.02 3.94002 16.51C4.24002 16.99 4.65001 17.39 5.14001 17.67L10.45 20.6C10.92 20.87 11.46 21.01 12.01 21.01C12.56 21.01 13.1 20.87 13.57 20.6L18.88 17.67C19.37 17.4 19.78 17 20.07 16.52C20.36 16.04 20.5 15.49 20.5 14.93V14.91Z" stroke="black" stroke-width="1.5" stroke-miterlimit="10"/>
<path d="M12 7.28998V12.58" stroke="black" stroke-width="1.5" stroke-linecap="round" stroke-linejoin="round"/>
<path d="M12 16.73C12.54 16.73 12.98 16.29 12.98 15.75C12.98 15.21 12.54 14.77 12 14.77C11.46 14.77 11.02 15.21 11.02 15.75C11.02 16.29 11.46 16.73 12 16.73Z" fill="black"/>
</g>
<defs>
<clipPath id="clip0_7_6772">
<rect width="24" height="24" fill="white"/>
</clipPath>
</defs>
</svg>
