<svg width="24" height="24" viewBox="0 0 24 24" fill="none" xmlns="http://www.w3.org/2000/svg">
<g clip-path="url(#clip0_7_6722)">
<path d="M20.88 13.53C20.27 17.27 17.48 20.13 13.77 20.83C11.73 21.22 9.80002 20.91 8.13002 20.13C7.85002 19.99 7.41 19.94 7.11 20C6.49 20.15 5.43002 20.41 4.54002 20.61C3.68002 20.82 3.15001 20.29 3.37001 19.44L3.98002 16.88C4.05002 16.58 3.98002 16.13 3.85002 15.85C3.09002 14.26 2.79002 12.41 3.10002 10.47C3.70002 6.75001 6.72002 3.72999 10.45 3.10999C16.61 2.11999 21.86 7.36 20.85 13.52L20.88 13.53Z" stroke="black" stroke-width="1.5" stroke-linecap="round" stroke-linejoin="round"/>
<path d="M9.75 8.48999C9.49 8.48999 9.23999 8.60001 9.01999 8.82001C8.82999 9.00001 8.7 9.19 8.62 9.41C8.54 9.62 8.48999 9.85 8.48999 10.09C8.48999 10.46 8.56999 10.84 8.73999 11.24C8.90999 11.64 9.13999 12.04 9.42999 12.44C9.71999 12.84 10.05 13.22 10.41 13.59C10.78 13.95 11.16 14.28 11.56 14.57C11.96 14.86 12.37 15.09 12.77 15.27C13.17 15.45 13.56 15.53 13.92 15.53C14.17 15.53 14.39 15.48 14.61 15.4C14.82 15.31 15.01 15.18 15.19 14.99C15.29 14.88 15.37 14.76 15.43 14.63C15.49 14.5 15.52 14.37 15.52 14.25C15.52 14.15 15.5 14.06 15.46 13.98C15.42 13.89 15.36 13.82 15.27 13.76L14.11 12.93C14.02 12.87 13.94 12.82 13.86 12.79C13.78 12.76 13.71 12.74 13.65 12.74C13.56 12.74 13.48 12.76 13.4 12.81C13.32 12.85 13.23 12.92 13.15 13.01L12.88 13.27C12.88 13.27 12.8 13.33 12.74 13.33C12.71 13.33 12.68 13.33 12.65 13.32C12.63 13.31 12.6 13.3 12.59 13.29C12.47 13.23 12.32 13.12 12.14 12.97C11.95 12.81 11.77 12.64 11.58 12.45C11.4 12.26 11.23 12.08 11.07 11.89C10.92 11.71 10.81 11.56 10.74 11.44C10.74 11.42 10.72 11.4 10.71 11.37C10.71 11.34 10.7 11.32 10.7 11.29C10.7 11.23 10.72 11.19 10.76 11.15L11.03 10.87C11.11 10.79 11.18 10.7 11.23 10.62C11.28 10.54 11.3 10.45 11.3 10.37C11.3 10.3 11.28 10.23 11.25 10.16C11.22 10.08 11.17 10 11.11 9.91L10.29 8.76001C10.23 8.67001 10.15 8.61 10.05 8.56C9.95999 8.52 9.85999 8.5 9.76999 8.5L9.75 8.48999Z" fill="black"/>
</g>
<defs>
<clipPath id="clip0_7_6722">
<rect width="24" height="24" fill="white"/>
</clipPath>
</defs>
</svg>
